<svg width="52" height="52" viewBox="0 0 52 52" fill="none" xmlns="http://www.w3.org/2000/svg">
<path fill-rule="evenodd" clip-rule="evenodd" d="M26 45.76C38.6363 45.76 48.88 35.5163 48.88 22.88C48.88 10.2437 38.6363 0 26 0C13.3637 0 3.12 10.2437 3.12 22.88C3.12 29.9951 6.36771 36.3516 11.4616 40.548C11.4697 40.5547 11.4624 40.5677 11.4525 40.5643C11.4464 40.5622 11.44 40.5667 11.44 40.5732V45.8543C11.44 48.673 14.4109 50.5024 16.9279 49.2336L22.9764 46.1846C23.6398 45.8502 24.383 45.7157 25.1255 45.7436C25.4156 45.7545 25.7072 45.76 26 45.76Z" fill="#BC0C00"/>
<path d="M33.9734 17.8308C34.6465 17.1577 34.6465 16.0665 33.9734 15.3934L33.6066 15.0265C32.9335 14.3535 31.8422 14.3535 31.1692 15.0265L26 20.1957L20.8308 15.0265C20.1577 14.3535 19.0664 14.3535 18.3934 15.0265L18.0265 15.3934C17.3535 16.0665 17.3535 17.1577 18.0265 17.8308L23.1957 23L18.0265 28.1692C17.3535 28.8423 17.3535 29.9335 18.0265 30.6066L18.3934 30.9734C19.0664 31.6465 20.1577 31.6465 20.8308 30.9734L26 25.8043L31.1692 30.9734C31.8422 31.6465 32.9335 31.6465 33.6066 30.9734L33.9734 30.6066C34.6465 29.9335 34.6465 28.8423 33.9734 28.1692L28.8043 23L33.9734 17.8308Z" fill="white"/>
</svg>
