<svg width="24" height="24" viewBox="0 0 24 24" fill="none" xmlns="http://www.w3.org/2000/svg">
<path d="M7.99982 11H15.9998C16.1475 10.999 16.2932 10.9653 16.4263 10.9013C16.5595 10.8373 16.6768 10.7447 16.7698 10.63C16.8676 10.5175 16.939 10.3846 16.9788 10.241C17.0186 10.0974 17.0257 9.9467 16.9998 9.79996L15.9998 4.79996C15.9531 4.57068 15.8274 4.36506 15.6447 4.21889C15.462 4.07271 15.2338 3.99524 14.9998 3.99996H8.99982C8.76588 3.99524 8.53768 4.07271 8.35497 4.21889C8.17225 4.36506 8.04657 4.57068 7.99982 4.79996L6.99982 9.79996C6.9712 9.94523 6.97519 10.095 7.01151 10.2386C7.04782 10.3821 7.11556 10.5158 7.20982 10.63C7.305 10.7473 7.42552 10.8416 7.56235 10.9056C7.69918 10.9697 7.84875 11.002 7.99982 11ZM9.81982 5.99996H14.1798L14.7798 8.99996H9.21982L9.81982 5.99996ZM21.9998 13.8C21.9531 13.5707 21.8274 13.3651 21.6447 13.2189C21.462 13.0727 21.2338 12.9952 20.9998 13H14.9998C14.7659 12.9952 14.5377 13.0727 14.355 13.2189C14.1722 13.3651 14.0466 13.5707 13.9998 13.8L12.9998 18.8C12.9712 18.9452 12.9752 19.095 13.0115 19.2386C13.0478 19.3821 13.1156 19.5158 13.2098 19.63C13.305 19.7473 13.4255 19.8416 13.5623 19.9056C13.6992 19.9697 13.8487 20.002 13.9998 20H21.9998C22.1475 19.999 22.2932 19.9653 22.4263 19.9013C22.5595 19.8373 22.6768 19.7447 22.7698 19.63C22.8676 19.5175 22.939 19.3846 22.9788 19.241C23.0186 19.0974 23.0257 18.9467 22.9998 18.8L21.9998 13.8ZM15.2198 18L15.8198 15H20.1798L20.7798 18H15.2198ZM8.99982 13H2.99982C2.76588 12.9952 2.53768 13.0727 2.35497 13.2189C2.17225 13.3651 2.04657 13.5707 1.99982 13.8L0.999823 18.8C0.971199 18.9452 0.975189 19.095 1.01151 19.2386C1.04782 19.3821 1.11556 19.5158 1.20982 19.63C1.305 19.7473 1.42552 19.8416 1.56235 19.9056C1.69918 19.9697 1.84875 20.002 1.99982 20H9.99982C10.1475 19.999 10.2932 19.9653 10.4263 19.9013C10.5595 19.8373 10.6768 19.7447 10.7698 19.63C10.8676 19.5175 10.939 19.3846 10.9788 19.241C11.0186 19.0974 11.0257 18.9467 10.9998 18.8L9.99982 13.8C9.95307 13.5707 9.8274 13.3651 9.64468 13.2189C9.46196 13.0727 9.23377 12.9952 8.99982 13ZM3.21982 18L3.81982 15H8.17982L8.77982 18H3.21982Z" fill="white"/>
</svg>
