<svg width="30" height="30" viewBox="0 0 30 30" fill="none" xmlns="http://www.w3.org/2000/svg">
<path d="M14.9998 4.16675C12.8986 4.17074 10.844 4.78567 9.0861 5.93663C7.32822 7.08759 5.94299 8.72492 5.09912 10.6492C4.25525 12.5734 3.98918 14.7015 4.3333 16.7743C4.67742 18.8471 5.61689 20.7751 7.03727 22.3234C8.05173 23.4231 9.28296 24.3006 10.6534 24.9009C12.0238 25.5011 13.5037 25.811 14.9998 25.811C16.4959 25.811 17.9758 25.5011 19.3462 24.9009C20.7166 24.3006 21.9478 23.4231 22.9623 22.3234C24.3827 20.7751 25.3221 18.8471 25.6662 16.7743C26.0104 14.7015 25.7443 12.5734 24.9004 10.6492C24.0565 8.72492 22.6713 7.08759 20.9134 5.93663C19.1556 4.78567 17.1009 4.17074 14.9998 4.16675ZM14.9998 23.6667C12.7556 23.6633 10.6003 22.7895 8.98727 21.2292C9.47698 20.0371 10.3101 19.0174 11.3806 18.2998C12.4512 17.5822 13.7109 17.199 14.9998 17.199C16.2886 17.199 17.5483 17.5822 18.6189 18.2998C19.6895 19.0174 20.5226 20.0371 21.0123 21.2292C19.3993 22.7895 17.2439 23.6633 14.9998 23.6667ZM12.8331 12.8334C12.8331 12.4049 12.9602 11.986 13.1983 11.6297C13.4363 11.2734 13.7747 10.9957 14.1706 10.8317C14.5665 10.6677 15.0022 10.6248 15.4225 10.7084C15.8428 10.792 16.2288 10.9983 16.5318 11.3014C16.8348 11.6044 17.0412 11.9904 17.1248 12.4107C17.2084 12.831 17.1655 13.2667 17.0015 13.6626C16.8375 14.0585 16.5598 14.3969 16.2035 14.6349C15.8472 14.873 15.4283 15.0001 14.9998 15.0001C14.4251 15.0001 13.874 14.7718 13.4677 14.3655C13.0614 13.9592 12.8331 13.4081 12.8331 12.8334ZM22.4856 19.3334C21.5177 17.6778 20.028 16.39 18.2498 15.6717C18.8014 15.0463 19.1608 14.275 19.2849 13.4503C19.4089 12.6256 19.2924 11.7827 18.9493 11.0226C18.6062 10.2625 18.0511 9.6176 17.3505 9.16521C16.6499 8.71282 15.8337 8.47218 14.9998 8.47218C14.1658 8.47218 13.3496 8.71282 12.649 9.16521C11.9485 9.6176 11.3933 10.2625 11.0502 11.0226C10.7071 11.7827 10.5906 12.6256 10.7147 13.4503C10.8388 14.275 11.1982 15.0463 11.7498 15.6717C9.97158 16.39 8.48186 17.6778 7.51394 19.3334C6.74254 18.0194 6.33496 16.5238 6.3331 15.0001C6.3331 12.7015 7.24619 10.4971 8.87151 8.87182C10.4968 7.24651 12.7012 6.33341 14.9998 6.33341C17.2983 6.33341 19.5027 7.24651 21.128 8.87182C22.7533 10.4971 23.6664 12.7015 23.6664 15.0001C23.6646 16.5238 23.257 18.0194 22.4856 19.3334Z" fill="black"/>
</svg>
