<svg width="769" height="418" viewBox="0 0 769 418" fill="none" xmlns="http://www.w3.org/2000/svg">
<g clip-path="url(#clip0_117_20073)">
<path d="M-75.8904 404.635C-74.004 405.107 96.7608 404.164 90.6271 406.524C84.4933 408.884 89.2123 377.761 90.6271 371.158C92.0419 364.556 84.0248 357.486 85.9112 365.973C87.7975 374.461 105.253 376.347 112.801 362.674C120.35 349.001 135.444 307.976 132.142 283.458C128.841 258.941 111.858 189.165 112.329 169.352C112.801 149.539 120.821 136.818 119.419 138.236C118.016 139.653 91.1172 170.769 93.0035 172.655C94.8899 174.54 103.382 179.741 102.438 182.557C101.495 185.373 89.2277 191.045 90.174 196.704C91.1202 202.364 117.989 249.51 123.657 264.126C129.325 278.742 135.921 304.205 143.47 283.93C151.018 263.655 172.246 201.889 172.246 177.84C172.246 153.791 171.3 130.703 175.547 134.933C179.795 139.163 191.575 158.982 191.113 160.868C190.65 162.753 176.49 173.595 181.678 175.483C186.865 177.372 191.113 175.012 191.113 183.493C191.113 191.975 170.357 244.803 160.45 263.652C150.544 282.5 143.47 293.844 148.186 305.145C152.902 316.445 170.357 379.643 195.36 373.515C220.364 367.387 233.097 365.97 232.625 351.352C232.153 336.733 210.919 297.612 210.448 273.085C209.976 248.558 210.448 222.161 209.976 219.805C209.505 217.448 194.408 189.165 199.598 202.361C204.789 215.556 224.139 224.518 229.318 209.903C234.496 195.287 222.438 173.009 222.438 173.009C222.438 173.009 226.95 180.419 225.662 192.979C224.374 205.54 211.16 206.508 206.327 204.57C201.494 202.632 199.882 195.228 203.75 193.941C207.618 192.653 216.637 197.176 212.448 197.484C208.259 197.792 195.369 195.872 199.882 189.43C204.394 182.988 215.028 185.567 211.16 186.855C207.292 188.142 195.049 188.786 198.917 182.988C202.785 177.19 212.787 177.837 210.839 178.801C208.891 179.766 196.017 177.513 200.205 174.294C204.394 171.074 211.804 173.986 215.028 168.816C218.252 163.647 215.993 144.339 210.516 147.25C205.038 150.162 206.651 167.541 207.615 169.476C208.58 171.41 225.662 166.253 227.915 173.015C230.168 179.778 231.463 202.006 233.072 190.41C234.681 178.814 229.851 152.719 222.117 148.532C214.384 144.345 198.593 147.574 188.604 143.057C178.614 138.541 170.557 129.529 170.557 127.274C170.557 125.019 156.378 144.668 145.103 141.138C133.828 137.607 121.579 118.268 120.612 107.316C119.644 96.3634 119.647 75.1085 117.711 79.6158C115.775 84.1231 191.184 85.414 195.049 82.8384C198.914 80.2628 207.295 74.1411 197.949 74.1411C188.604 74.1411 93.2224 72.8533 99.0232 75.7524C104.824 78.6515 103.533 80.2628 107.077 72.2094C110.622 64.156 112.878 43.8654 123.512 37.7468C134.146 31.6282 135.114 30.3527 136.078 32.269C137.043 34.1853 136.723 69.3103 136.078 60.9365C135.434 52.5627 134.79 28.0698 141.559 26.782C148.327 25.4942 164.115 28.7137 164.436 33.2241C164.756 37.7345 163.791 61.8762 163.471 56.7373C163.15 51.5984 163.779 32.2567 169.269 33.868C174.758 35.4793 185.059 47.3961 187.315 57.0577C189.572 66.7193 187.007 78.9596 187.007 78.9596C187.007 78.9596 181.53 77.6718 187.975 90.8764C194.42 104.081 197.94 124.375 204.721 132.752C211.502 141.128 217.935 146.6 208.589 143.057C199.244 139.514 187.322 136.295 183.453 127.274C179.585 118.253 170.236 83.47 172.493 89.5917C174.749 95.7134 176.037 113.746 174.749 119.867C173.46 125.989 171.848 164.315 162.494 172.365C153.139 180.416 117.381 171.078 118.026 162.704C118.67 154.33 128.98 139.514 128.98 136.615C128.98 133.716 111.91 147.574 105.471 144.345C99.0325 141.116 107.08 130.817 107.08 113.102C107.08 95.3868 109.981 78.6392 111.593 80.2505C113.205 81.8618 114.17 101.185 114.17 114.069C114.17 126.953 103.215 146.924 99.9911 148.855C96.767 150.787 89.0335 183.004 89.6777 173.333C90.3219 163.662 90.3219 149.499 86.4537 153.363C82.5854 157.226 70.3333 190.727 67.7658 205.543C65.1982 220.359 45.8538 352.414 54.2314 356.278C62.6091 360.141 83.2327 361.432 78.076 357.569C72.9193 353.705 83.8769 398.794 77.4318 396.218C70.9867 393.643 66.4774 378.183 68.41 383.334C70.3425 388.485 69.6983 414.901 63.2533 402.016C56.8082 389.132 53.5872 355.634 61.3207 351.771C69.0542 347.907 91.6103 356.278 84.5211 354.346C77.4318 352.414 88.3894 284.133 91.6103 264.163C94.8313 244.193 92.8987 231.952 94.1871 236.463C95.4755 240.973 108.366 273.825 103.856 291.863C99.3469 309.902 88.3893 351.771 89.6777 356.278C90.9661 360.785 127.047 373.672 142.524 367.24C158 360.807 159.279 347.913 150.901 354.355C142.524 360.797 148.315 397.506 141.226 391.708C134.137 385.91 108.356 363.364 108.356 376.248C108.356 389.132 109.648 404.592 114.157 405.88C118.667 407.168 217.919 408.459 219.208 398.794C220.496 389.129 218.564 367.874 216.628 378.827C214.692 389.779 229.518 403.948 235.319 405.236C235.319 405.236 258.128 416.037 247.932 408.382C237.735 400.726 228.784 327.355 228.784 298.663C228.784 269.97 219.846 275.063 232.613 275.701C245.379 276.339 260.695 276.976 260.695 285.908C260.695 294.839 265.8 301.854 254.312 301.217C242.824 300.579 213.469 291.647 225.594 287.818C237.72 283.988 252.41 291.647 251.76 285.27C251.109 278.893 224.327 275.701 227.508 262.305C230.689 248.91 236.447 174.276 247.932 164.706C259.416 155.137 267.079 146.837 270.266 153.224C273.453 159.611 268.355 244.442 259.419 250.182C250.484 255.922 261.333 225.945 265.8 204.893C270.266 183.842 268.355 155.775 277.925 150.035C287.496 144.296 296.419 138.553 297.072 141.101C297.726 143.649 304.732 183.201 320.686 201.701C336.64 220.202 340.468 234.873 334.726 225.304C328.983 215.735 344.299 192.132 353.87 168.53C363.44 144.927 366.634 132.175 366.634 132.175C366.634 132.175 342.382 153.865 335.364 158.979C328.345 164.093 295.796 141.11 303.456 138.568C311.115 136.027 315.579 129.634 311.75 121.981C307.922 114.328 303.955 97.3339 304.92 102.812C305.885 108.289 314.589 135.663 335.533 132.767C356.477 129.871 362.278 108.286 364.858 97.337C367.438 86.3876 369.691 73.8238 371.303 81.8741C372.915 89.9244 367.759 107.966 366.147 103.776C364.534 99.586 360.993 66.7224 362.932 62.5416C364.87 58.3609 374.213 58.3547 368.088 59.963C361.964 61.5712 335.222 58.0312 322.652 58.0312C310.083 58.0312 300.42 62.2181 299.776 64.1499C299.131 66.0816 303.641 74.4584 303.964 77.6779C304.288 80.8975 301.064 70.5919 299.131 77.034C297.199 83.4761 302.032 108.277 303.641 99.2594C305.25 90.2417 303.949 79.2892 298.487 70.9154C293.025 62.5416 290.43 61.8977 289.142 58.9986C287.853 56.0995 373.245 54.1678 380.334 58.0312C387.424 61.8947 371.312 69.6276 375.178 64.8092C379.043 59.9907 390.968 58.0312 384.203 54.5006C377.437 50.9699 347.144 47.7227 324.588 49.0259C302.032 50.3291 281.729 54.5006 286.886 54.8241C292.042 55.1476 297.84 51.925 297.84 40.6521C297.84 29.3792 302.352 14.5602 311.71 10.3733C321.068 6.18638 324.264 4.55968 325.238 6.16173C326.212 7.76378 325.238 34.1976 325.238 24.5206C325.238 14.8436 324.93 2.29832 332.636 1.33093C340.342 0.363538 351.647 2.61873 352.615 5.19742C353.583 7.77611 355.198 34.5057 354.554 27.1116C353.91 19.7176 352.945 4.88625 359.067 8.42925C365.188 11.9723 374.863 31.9363 374.863 40.3101C374.863 48.6839 336.193 38.6988 318.793 43.2092C301.394 47.7196 368.726 41.5979 370.03 71.5532C371.334 101.508 360.685 111.17 362.941 122.123C365.197 133.075 372.286 136.295 378.411 137.259C384.535 138.223 400.323 143.701 398.711 140.802C397.099 137.903 397.743 176.876 400.967 202.644C404.191 228.413 409.021 260.94 412.245 251.938C415.469 242.936 412.889 213.289 413.21 221.983C413.531 230.677 435.125 238.09 444.467 232.935C453.81 227.781 463.482 209.422 456.069 197.197C453.042 192.2 448.511 188.167 444.427 185.367C438.512 181.306 433.541 179.821 435.446 181.737C438.67 184.96 450.268 193.654 448.98 207.182C447.691 220.71 440.602 230.052 430.289 225.541C419.976 221.031 413.857 211.369 414.822 212.66C415.787 213.951 391.622 220.71 387.109 212.968C382.597 205.226 402.9 198.488 395.49 202.983C388.08 207.478 375.187 210.069 382.276 202.339C389.365 194.609 399.679 193.965 394.522 195.253C389.365 196.541 376.799 199.12 381.311 191.71C385.824 184.301 398.387 182.692 394.846 184.624C391.304 186.556 374.222 181.405 381.632 177.23C389.042 173.055 399.999 173.364 400.643 169.177C401.288 164.99 406.444 135.678 411.922 142.764C417.399 149.85 408.701 163.378 413.857 171.752C419.014 180.126 445.756 193.654 447.047 189.147C448.339 184.64 444.147 179.482 438.99 167.889C433.834 156.296 428.036 144.699 419.011 142.12C409.986 139.542 393.234 135.358 390.962 145.987C388.69 156.616 350.683 213.304 361.317 220.71C371.95 228.117 423.828 228.764 401.596 231.983C379.363 235.203 277.213 218.455 272.701 225.205C268.188 231.956 257.558 234.547 271.412 239.701C285.267 244.855 404.173 251.618 408.041 249.362C411.909 247.107 412.874 235.19 411.906 239.377C410.938 243.564 426.211 376.704 426.149 378.254C424.765 411.127 375.31 392.734 365.857 385.426C356.403 378.118 341.778 340.929 335.761 356.389C329.745 371.849 330.626 378.553 306.134 384.135C281.643 389.718 252.86 385.854 252.86 381.131C252.86 376.408 256.374 300.896 257.662 315.925C258.951 330.953 262.314 393.587 263.602 410.335C264.89 427.082 261.959 406.542 265.396 406.542C268.833 406.542 310.94 411.265 316.525 406.967C322.11 402.67 331.486 415.902 327.621 409.047C323.756 402.192 313.442 385.854 321.604 392.718C329.766 399.583 342.225 404.734 341.368 398.732C340.511 392.731 324.181 375.971 331.486 382.404C338.791 388.836 371.445 391.421 367.148 393.572C362.852 395.722 341.8 393.997 344.376 404.306C346.953 414.614 347.89 406.952 348.75 402.229C349.61 397.506 346.093 409.032 371.867 406.453C397.641 403.874 422.213 362.292 416.2 367.874C410.186 373.457 415.34 403.517 412.332 404.808C409.323 406.099 379.678 403.089 396.865 402.651C414.051 402.214 454.867 405.227 454.867 405.227C454.867 405.227 487.379 404.734 477.155 406.345C466.931 407.956 457.247 404.734 457.247 396.665C457.247 388.596 457.783 348.252 455.631 351.484C453.48 354.716 430.878 362.239 448.635 364.932C466.392 367.625 487.918 369.245 494.915 359.55C501.912 349.854 499.757 257.354 498.682 270.802C497.606 284.25 499.221 358.478 518.054 363.844C536.887 369.211 583.707 358.468 583.707 352.011C583.707 348.69 580.15 336.409 576.035 321.239C572.148 306.91 567.765 290.002 565.413 275.642C560.568 246.066 572.407 197.647 570.792 208.405C569.177 219.164 567.565 230.997 556.265 222.932C544.965 214.866 538.514 143.877 553.044 139.563C567.574 135.25 575.646 141.72 575.646 141.72C575.646 141.72 553.044 149.786 555.199 169.688C557.353 189.591 566.588 203.608 579.154 201.677C591.721 199.745 603.646 187.181 601.39 186.861C599.133 186.54 590.112 188.472 582.054 179.467C573.997 170.461 580.122 156.277 579.798 158.209C579.475 160.14 577.221 177.532 588.823 179.143C600.425 180.755 606.543 179.143 606.543 166.583C606.543 154.022 609.123 145.016 603.966 142.102C598.81 139.187 595.589 136.948 595.265 130.509C594.942 124.07 593.012 110.215 587.868 114.081C582.723 117.948 583.355 141.138 587.868 143.39C592.38 145.642 599.146 144.037 595.265 143.39C591.385 142.743 577.542 144.037 579.798 150.168C582.054 156.299 594.285 157.562 593.977 155.642C593.669 153.723 574.642 154.33 580.76 161.746C586.878 169.161 598.483 163.68 594.294 163.357C590.105 163.033 573.991 161.425 581.728 168.511C589.464 175.597 595.259 173.342 595.259 173.342C595.259 173.342 583.66 174.953 588.17 176.885C592.679 178.817 603.96 172.375 604.284 163.357C604.608 154.339 609.761 156.915 610.082 165.612C610.402 174.309 607.181 195.244 592.362 193.956C577.542 192.668 573.671 183.312 573.033 189.436C572.395 195.561 565.299 213.273 559.819 212.629C554.339 211.985 545.005 167.858 550.153 154.33C555.3 140.802 567.232 137.582 557.242 134.683C547.252 131.784 537.263 129.849 533.074 127.274C528.885 124.698 537.586 139.191 521.152 155.618C504.717 172.045 492.486 194.27 493.762 191.692C495.039 189.113 498.595 183.318 483.449 165.926C468.303 148.535 468.306 131.14 468.306 131.14C468.306 131.14 467.014 138.226 479.904 144.024C492.795 149.823 497.307 151.419 497.307 151.419C497.307 151.419 486.029 173.32 491.827 166.234C497.625 159.148 495.695 151.095 501.816 153.674C507.938 156.252 510.841 163.659 513.095 157.861C515.348 152.062 501.172 152.706 506.653 148.519C512.133 144.333 521.139 140.146 523.084 132.739C525.029 125.333 519.219 121.787 520.507 115.345C521.796 108.903 527.905 91.8315 526.953 95.6979C526 99.5644 516.963 125.006 500.528 124.042C484.093 123.078 475.395 107.291 474.427 101.173C473.459 95.0541 473.459 88.9324 473.459 90.5437C473.459 92.155 474.751 101.817 471.206 96.0184C467.662 90.2202 463.809 76.6951 467.662 73.7961C471.514 70.897 471.527 87.0007 473.783 80.8821C476.039 74.7634 477.972 59.6241 475.395 59.316C472.818 59.0079 463.473 70.5889 467.662 68.9807C471.85 67.3724 479.26 57.0608 493.118 57.0608C506.976 57.0608 526.953 63.5029 528.873 66.402C530.793 69.3011 526.296 88.3039 528.565 83.1526C530.833 78.0014 533.398 64.1468 534.686 71.8767C535.974 79.6066 533.718 96.6777 531.141 89.9152C528.565 83.1527 532.109 68.6572 535.33 68.0133C538.551 67.3694 537.586 82.4933 538.231 77.031C538.875 71.5686 547.252 69.945 543.387 64.1468C539.522 58.3486 516.319 49.9748 495.051 49.9748C473.783 49.9748 453.804 69.9357 458.637 68.0102C463.47 66.0846 469.915 41.5979 477.328 30.6485C484.741 19.6991 497.628 16.7846 498.287 19.696C498.947 22.6074 498.595 39.3427 499.255 32.5802C499.915 25.8177 498.287 16.7969 507.633 17.4408C516.978 18.0847 519.555 30.0046 518.59 33.5476C517.626 37.0906 514.707 20.3337 522.764 23.8829C530.821 27.4321 541.131 51.583 536.298 52.8708C531.465 54.1586 510.841 43.5327 495.381 43.8531C479.92 44.1735 473.469 79.2831 473.148 87.6569C472.828 96.0307 475.404 109.559 474.116 120.832C472.828 132.105 469.28 135.648 460.582 139.514C451.883 143.381 438.67 144.989 440.602 144.345C442.535 143.701 448.336 169.79 448.98 175.588C449.624 181.386 442.849 144.668 438.975 149.176C435.1 153.683 446.708 177.843 455.73 185.573C464.752 193.303 465.399 216.493 465.399 216.493C465.399 216.493 547.89 211.982 548.535 219.068C549.179 226.154 545.958 237.107 553.047 235.819C560.136 234.531 444.131 236.463 440.263 240.97C436.395 245.477 429.953 349.192 434.462 342.753C438.972 336.314 437.042 302.169 449.288 298.946C461.534 295.723 487.311 293.151 487.955 300.881C488.6 308.611 493.756 355.634 482.799 352.414C471.841 349.195 527.911 344.685 527.911 338.886C527.911 333.088 513.733 302.812 529.847 299.593C545.961 296.373 565.293 296.37 566.581 299.593C567.87 302.816 585.269 398.797 583.337 400.082C581.404 401.366 520.178 404.592 518.889 399.438C517.601 394.283 515.024 371.741 511.8 379.471C508.576 387.201 504.711 402.016 504.711 395.574C504.711 389.132 513.733 381.402 500.201 381.402C486.67 381.402 449.932 364.008 446.708 376.248C443.484 388.488 446.064 404.592 497.621 407.168C549.179 409.743 607.181 406.527 607.181 406.527C607.181 406.527 622.731 369.227 611.293 364.319C599.855 359.411 576.993 364.319 591.693 365.135C606.392 365.952 623.548 370.85 629.266 345.544C634.984 320.238 623.548 232.886 623.548 240.231C623.548 247.576 626.812 349.623 653.755 356.971C680.697 364.319 717.462 346.357 717.462 335.747C717.462 325.136 688.061 274.518 690.511 252.474C692.961 230.431 697.045 223.089 697.045 223.089C697.045 223.089 717.595 205.315 711.794 210.257C705.993 215.199 699.049 220.821 695.615 214.592C692.181 208.362 684.519 191.143 686.23 190.931C687.94 190.718 687.305 202.74 693.106 204.027C698.907 205.315 710.506 202.096 711.366 197.585C712.226 193.075 712.867 176.115 708.786 172.68C704.705 169.244 701.277 171.401 701.277 167.963C701.277 164.525 704.07 147.993 699.561 147.136C695.051 146.28 691.824 161.521 693.544 166.675C695.264 171.829 703.854 171.829 699.986 171.401C696.118 170.973 686.026 171.401 685.807 175.693C685.589 179.984 704.495 181.063 699.986 180.203C695.477 179.344 683.65 179.991 685.595 183.854C687.54 187.717 699.135 188.364 698.503 187.933C697.871 187.502 686.689 187.289 689.256 191.584C691.824 195.879 701.277 196.513 700.639 196.307C700.001 196.1 687.968 195.235 690.329 198.882C692.69 202.53 709.664 213.054 714.174 207.688C718.683 202.321 722.551 187.289 720.406 176.571C718.261 165.852 713.104 155.094 707.947 152.518C702.791 149.943 682.811 148.439 676.795 146.292C670.778 144.145 662.188 134.48 666.056 138.346C669.924 142.213 681.951 161.761 679.803 163.043C677.655 164.324 667.557 166.047 672.07 168.194C676.582 170.341 680.879 166.906 679.59 174.208C678.302 181.509 633.615 275.772 634.259 269.33C634.903 262.887 655.527 201.048 658.751 173.992C661.975 146.936 662.616 137.918 661.972 141.141C661.328 144.363 647.149 181.078 632.327 178.502C617.504 175.927 611.059 147.583 612.991 149.515C614.924 151.446 620.081 236.478 621.372 217.796C622.664 199.113 608.482 146.936 613.636 146.292C618.789 145.648 621.372 138.562 621.372 138.562C621.372 138.562 614.591 110.218 615.248 115.693C615.904 121.167 629.426 148.224 644.893 142.105C660.36 135.986 666.161 114.405 665.853 106.999C665.544 99.5922 659.408 82.518 657.796 89.6071C656.183 96.6962 668.429 112.797 668.106 122.458C667.782 132.12 662.952 138.886 664.561 134.375C666.17 129.865 672.942 137.598 676.163 122.782C679.384 107.966 672.618 87.0438 671.653 86.708C670.689 86.3722 660.052 85.0967 635.563 86.3845C611.074 87.6723 594.63 90.8856 593.977 86.6926C593.323 82.4995 593.333 79.9147 596.557 79.9147C599.781 79.9147 682.916 74.7604 680.98 79.5912C679.045 84.422 674.859 84.7455 674.199 81.526C673.54 78.3064 674.199 63.811 668.399 54.1493C662.598 44.4877 658.088 39.3304 655.508 41.9091C652.929 44.4877 652.287 69.2857 654.544 61.5558C656.8 53.8259 660.345 41.9091 649.711 38.6865C639.077 35.4639 625.219 37.7222 624.575 42.8765C623.93 48.0307 624.898 66.0662 626.187 59.6241C627.475 53.182 627.475 40.9417 618.789 45.144C610.103 49.3463 604.302 60.6038 604.302 67.3694C604.302 74.1349 604.947 84.117 603.014 93.7786C601.081 103.44 594.633 111.497 597.213 121.158C599.793 130.82 609.117 139.834 609.117 136.935C609.117 134.036 603.316 129.541 608.793 118.576C614.271 107.612 624.908 87.6569 618.783 90.8764C612.659 94.0959 611.694 120.832 612.662 125.342C613.629 129.852 613.95 204.252 613.95 206.508C613.95 208.763 589.782 222.935 587.205 215.849C584.628 208.763 583.981 197.81 584.625 203.608C585.269 209.407 591.714 242.905 589.138 263.519C586.561 284.133 585.269 331.156 582.048 315.697C578.827 300.237 566.581 211.348 574.321 232.606C582.061 253.864 588.5 331.81 589.788 338.896C591.076 345.982 626.523 407.177 632.324 393.652C638.124 380.127 629.747 357.578 634.256 364.017C638.766 370.456 712.238 371.103 712.238 360.154C712.238 349.204 716.75 403.957 710.95 406.536C705.149 409.115 670.991 410.399 683.881 407.177C696.771 403.954 844.89 405.889 844.89 405.889" stroke="url(#paint0_linear_117_20073)" stroke-width="3" stroke-linecap="round" stroke-linejoin="round"/>
</g>
<defs>
<linearGradient id="paint0_linear_117_20073" x1="384.5" y1="1.10217" x2="384.5" y2="416.908" gradientUnits="userSpaceOnUse">
<stop stop-color="#FAFCAB"/>
<stop offset="1" stop-color="#31B76D"/>
</linearGradient>
<clipPath id="clip0_117_20073">
<rect width="923" height="418" fill="white" transform="translate(-77)"/>
</clipPath>
</defs>
</svg>
