<svg viewBox="0 0 325 79" fill="none" xmlns="http://www.w3.org/2000/svg">
  <g clip-path="url(#clip0_117_19298)">
    <path fill-rule="evenodd" clip-rule="evenodd"
      d="M96.8213 16.8358C96.8213 16.0979 97.2067 15.3053 97.9087 15.3053H101.199C101.575 15.3158 101.948 15.3897 102.3 15.5239V16.6172C102.3 17.0818 100.675 19.0633 100.331 20.5392H97.0416C96.8998 20.1917 96.8251 19.8208 96.8213 19.4459V16.8358ZM94.8392 45.096L94.4125 42.7045H94.8392V40.9963C94.8807 40.4821 94.9543 39.971 95.0594 39.4658C98.2942 39.4658 101.584 37.5117 101.859 37.5117H103.236L103.676 35.2842L100.166 34.4643C98.0326 34.4643 98.2253 35.3252 96.4359 35.3252H95.555L95.2797 32.2914L96.2157 31.8542C96.7604 31.3888 97.4668 31.1534 98.184 31.1982H99.7257V30.5423C100.846 30.4424 101.953 30.2271 103.029 29.9C104.736 29.736 104.929 30.228 104.984 27.9322C104.488 27.8092 104.323 27.9322 104.323 27.2762C104.323 25.9097 106.03 23.1766 107.393 23.1766H111.123C112.265 23.1766 111.453 24.2562 113.091 24.2562C113.986 24.2562 114.605 22.3977 114.468 21.5231L112.596 19.6646H109.1C109.746 18.4347 111.729 17.0681 111.729 16.6172V16.3985C111.729 15.5376 109.127 13.8841 108.398 13.3921C106.649 12.2989 105.989 12.0392 103.236 12.0529C100.689 12.0529 98.8998 12.6542 98.0326 10.8913C97.1655 9.1285 95.6376 8.30857 95.2797 7.09235L92.7057 6.8327L93.7518 10.4814C95.1283 12.7225 92.6644 12.7908 91.343 13.0915V13.7474C91.8935 13.8977 92.4304 14.1711 92.4304 14.8407V18.1067L92.2239 21.8647C89.957 22.6159 87.6023 23.0752 85.2176 23.2313C83.263 23.3816 79.3263 24.9668 78.6381 24.9668H75.9952C74.0544 24.9668 73.3937 19.8832 64.6393 21.933L64.3778 22.794H62.8086L61.9414 24.6661C63.1389 24.9941 63.0426 26.0327 64.3502 26.0327H68.287C68.3989 26.532 68.4725 27.0391 68.5072 27.5495V27.9868C68.5072 29.7087 67.64 29.6813 67.64 30.3783C67.8934 32.7455 68.2887 35.0955 68.8238 37.416C69.2643 39.2608 69.1129 43.4015 70.7096 43.8251V45.5606C70.7096 46.6948 71.7695 47.5421 71.5767 49.2366C71.3276 50.5904 71.1804 51.9607 71.1363 53.3363V54.8668C71.1468 55.2365 71.2213 55.6017 71.3565 55.9464C72.4577 55.9464 74.3297 55.8644 74.6463 55.0854H75.307C76.6835 55.0854 79.1061 56.698 80.8129 57.1762C81.859 57.4496 82.8501 57.3949 83.9788 57.7229C84.6533 57.9278 85.8783 58.6521 86.6492 58.9937C88.2872 59.718 90.462 60.456 92.0587 61.2486C93.6554 62.0411 96.546 61.9728 97.3857 63.5717H99.1889L100.455 64.7059C103.208 64.7059 103.098 64.4189 104.846 65.5805C107.475 65.5805 109.444 66.2774 110.806 66.0588C111.646 65.9358 113.298 65.9085 113.972 65.7172C115.005 65.4302 114.674 64.6649 116.257 64.5009C118.308 64.2959 117.455 64.1183 118.845 63.8177C119.85 63.5853 121.006 63.7357 122.038 63.5034C123.415 63.2027 126.691 62.1368 127.641 62.1368C127.434 59.6087 124.076 60.6063 121.667 60.2373C119.308 59.7199 116.909 59.409 114.495 59.3081H112.293V58.8708C108.893 58.8708 95.0457 57.9962 93.1324 57.0669L94.5089 54.9488L94.2611 51.0405V47.9521C94.2611 46.5855 96.5736 46.8588 97.9913 46.8725L98.1978 46.2165H101.047L105.658 46.4899L106.746 43.6611C105.704 42.9735 104.486 42.5943 103.236 42.5679H102.589C100.29 42.5132 97.8537 45.096 94.8392 45.096ZM91.7697 43.1418L91.9899 45.7519L88.4936 46.4625L84.6946 48.0614C83.921 47.9167 83.1397 47.8163 82.3546 47.7607H82.1343C81.157 47.7607 80.4 49.5236 80.3724 50.5895H82.795C84.1715 50.5895 87.2135 49.1273 89.5811 49.0726L92.4166 48.116V51.4641C92.4166 52.0654 92.2514 51.9834 91.7559 52.12L89.5811 51.9287L89.8288 54.9761C90.2005 55.2494 90.1867 55.4134 90.6822 55.4134H91.343L91.5494 56.083L91.3017 56.7116C87.9155 57.5179 83.5934 55.2084 80.8129 55.2084L79.8356 53.9922C78.7221 54.0636 77.604 54.0039 76.5045 53.8145C75.4309 53.6232 75.4034 52.858 74.3022 52.735C74.2222 51.2085 73.9917 49.6935 73.6139 48.2117C73.1872 46.8452 73.49 44.3717 72.554 44.0301L71.8107 36.4048H72.554V30.3236C72.554 28.9571 74.7013 26.5383 74.9629 25.5407C76.8899 25.5407 78.115 26.8389 79.3538 26.8389H79.7943C79.7943 26.8389 84.5982 25.568 85.5755 25.4041C87.6362 24.9305 89.7297 24.6108 91.8385 24.4475L92.1 29.449C90.3794 30.3373 88.2459 30.6243 86.4014 31.4442C84.4608 32.3416 82.3601 32.8478 80.221 32.9337V33.5897C80.221 34.1363 81.1295 34.6829 81.5975 34.6829H82.038C83.9237 34.6829 84.4468 33.863 86.1674 33.7946C87.888 33.7263 89.6224 33.371 90.5584 33.371H92.2239C92.3291 33.8762 92.4026 34.3874 92.4441 34.9016V36.8967L90.9163 37.17L80.4413 40.5454V41.0373C81.2121 41.2013 81.1846 41.461 81.9829 41.461C83.1146 41.4104 84.239 41.2548 85.3415 40.9963C87.2135 40.5591 86.2638 40.8324 88.4661 40.8324C89.0305 40.4634 89.4021 40.6684 89.9802 40.3677C90.8061 39.9441 90.1867 39.5205 91.0952 39.5205H91.7421V40.1764C91.7421 40.9144 90.3657 41.9393 90.2142 42.7865L91.7697 43.1418ZM96.1606 23.5592C96.9177 23.3679 96.9039 23.1219 97.6885 23.1219H98.5695C100.937 23.1219 99.9459 25.855 99.2302 26.8116C97.3169 26.8116 97.4958 27.4675 96.8213 27.4675C96.546 27.4675 96.1606 27.0166 96.1606 26.6066V23.5592Z"
      fill="#DEDEDE" />
    <path fill-rule="evenodd" clip-rule="evenodd"
      d="M16.0084 7.87128V12.6542C17.027 13.0368 18.1557 15.9202 19.9452 15.9202H20.7297L23.0147 9.98943H20.3856C19.2828 8.96719 18.11 8.02202 16.8756 7.16068H16.6554C16.1598 7.16068 16.0084 7.311 16.0084 7.81662M39.4085 62.2188C40.6061 62.2188 43.7857 62.2188 43.7857 61.1256C43.7857 60.4013 43.4003 59.6087 42.6846 59.6087C42.0731 59.5983 41.4699 59.7492 40.9364 60.046V59.8273L40.7162 59.1714L39.2434 59.0894L40.496 57.2172C40.8219 56.5485 41.2817 55.9528 41.8474 55.4665C42.413 54.9801 43.0725 54.6133 43.7857 54.3885C43.7857 52.9536 41.7623 50.4665 40.7162 50.4665H37.041V50.9038H35.2929C34.2989 51.1426 33.3409 51.5101 32.4436 51.997C32.0916 52.1313 31.7193 52.2052 31.3424 52.2157H30.2825C30.1408 51.8682 30.066 51.4973 30.0623 51.1224V50.6852C30.0623 48.3894 31.1497 47.8154 31.5489 46.2849C31.948 44.7543 33.0905 43.2921 34.6597 43.2921H36.0362C36.2289 42.7592 36.2839 42.6362 37.1236 42.6362H47.2132C50.792 42.6362 52.3612 44.1257 54.013 44.1531C54.1506 43.5655 54.4397 43.2785 54.4397 42.7865C54.4397 41.1603 50.3102 38.6869 48.5208 38.6869H47.6536C47.103 38.6869 45.1484 39.4248 44.5428 39.5205C43.3177 39.7255 42.0651 39.7391 41.019 39.9441C38.8579 40.3677 36.6969 41.7343 34.935 41.7343L32.7326 41.8299V40.4634L29.8145 39.6298L30.255 38.7689C33.0079 36.965 39.4498 38.7689 40.1243 35.8171L30.6817 35.2978C30.7643 31.7312 37.041 32.6468 37.041 29.2031V28.9844C37.041 27.6862 36.6005 26.7979 35.2929 26.7979H33.9164C32.7189 26.7979 32.7051 27.2352 31.5076 27.2352H31.2873C30.1448 27.2352 28.9886 22.056 31.6039 20.8125C32.0169 20.6212 39.326 19.8422 40.317 19.8286L39.9729 18.8856L37.2199 17.1501L31.714 18.3117C31.714 16.5352 33.2282 16.2482 34.3569 15.2916C35.339 14.3043 36.5346 13.5519 37.8531 13.0915V12.4492C37.8531 10.1397 41.9826 9.62046 41.9826 7.21534V5.84879C40.3858 5.84879 40.1243 5.4115 38.6928 5.4115H38.5414C37.0685 5.4115 37.1649 5.97178 36.1325 6.06744V7.14701C35.3453 9.22802 34.3052 11.2059 33.0354 13.0368C32.5124 13.6518 31.5076 14.786 30.957 15.3326C30.0485 16.2345 29.1951 16.3029 28.3554 17.3141C26.2632 19.8422 26.979 20.0472 23.2212 21.1404C20.8596 21.9015 18.4441 22.4862 15.9947 22.8896H14.0263V23.9692C14.7971 24.1468 14.7696 24.4065 15.568 24.4065H17.3161C19.835 24.4065 22.1888 22.1653 23.6754 23.1083H24.3361C24.7215 22.8486 24.7215 22.671 25.2033 22.671H26.5798V23.1083H27.0202V23.7642C27.0202 27.9322 27.0202 27.7955 24.3912 29.2304C23.3726 29.7922 22.2565 30.1584 21.1014 30.31H20.4407C20.2283 30.8527 19.9045 31.3456 19.4898 31.7573C19.075 32.1691 18.5785 32.4906 18.0319 32.7014V33.3574C18.0319 35.5985 18.8302 36.1998 20.6609 36.6234C20.6609 37.416 20.5646 37.9899 19.78 37.9899L16.5177 37.9763L17.4813 39.4658L22.9872 39.2062H24.7766C25.9191 39.2062 26.3595 39.9988 27.1854 40.2994V42.4722C27.1854 43.8388 21.4593 44.5904 19.9039 44.8227C16.8756 45.26 14.3154 46.1892 11.3972 46.1892C11.3972 47.8837 10.6815 47.1595 8.9884 47.2688C8.00947 47.3759 7.068 47.7031 6.23544 48.2254C4.20712 48.8114 2.11164 49.1374 0 49.1956L0 50.9311C1.73436 50.9311 4.12943 52.2977 5.91885 52.2977H6.57956C6.7998 51.6691 9.08475 51.3411 10.062 50.9311C11.4385 50.3708 11.4385 49.8652 13.8061 49.8652C14.6444 49.0535 15.7179 48.5231 16.8756 48.3484C17.9929 47.9582 19.032 47.3753 19.9452 46.6265L21.9135 46.4625C22.4443 45.9402 23.1494 45.629 23.8956 45.5879H26.745V47.5421C26.6763 48.6005 26.3756 49.6312 25.864 50.5622C25.864 52.2294 24.3361 53.2953 24.3361 54.0469C24.3361 55.0854 25.0381 54.2792 25.4235 55.4134H26.9652C27.6011 55.3087 28.2014 55.0506 28.7133 54.6618L29.374 53.7872H36.8208L34.6322 57.2719L31.5626 60.7566C30.2596 61.8136 28.6464 62.4226 26.9652 62.4921C25.864 62.4921 25.5061 61.8362 24.9831 61.8362H24.1159C23.7302 60.118 23.1145 58.4589 22.2852 56.9029C22.1475 56.7936 17.495 55.3451 17.0958 55.3177C17.4813 56.6843 18.899 57.2036 19.4634 59.7044C19.6148 60.3466 20.1654 65.2662 20.1654 65.7582C21.1427 66.1544 20.9362 67.4937 22.5742 67.4937H24.1159V65.7582C24.1159 65.1432 24.6114 64.9109 24.9831 64.6649V64.8972L35.4718 63.3667L38.5414 62.2735L39.4085 62.2188ZM20.6472 33.1114C21.4113 32.6067 22.2066 32.1503 23.0285 31.7448C23.8748 31.3034 24.7651 30.9508 25.6851 30.6926C26.8 30.6926 26.4421 31.0616 27.2267 31.3485C27.0891 32.8654 24.1296 35.6941 22.6155 35.6941C21.2666 35.7215 20.6472 34.3549 20.6472 33.1114Z"
      fill="#DEDEDE" />
    <path fill-rule="evenodd" clip-rule="evenodd"
      d="M230.298 13.4878L230.739 15.6879L227.009 16.5352C224.999 17.5054 221.985 16.1252 220.87 16.0979C220.739 16.4481 220.669 16.8178 220.663 17.1911V17.6284C220.6 18.2356 220.693 18.8487 220.934 19.4104C221.175 19.972 221.555 20.4638 222.04 20.8398C222.232 21.0038 224.793 22.4113 224.793 22.4113C225.632 22.4113 230.188 18.3117 230.932 18.3117C231.675 18.3117 233.065 21.3591 234.662 21.3591H234.882C234.998 21.363 235.114 21.343 235.222 21.3002C235.33 21.2575 235.428 21.193 235.509 21.1108C235.591 21.0286 235.654 20.9305 235.695 20.8227C235.737 20.7149 235.755 20.5997 235.749 20.4845V19.3913C235.749 18.3664 234.703 11.8889 234.373 10.7274C233.643 7.99429 232.749 5.98547 229.156 5.90348L230.298 13.4878ZM247.615 9.14219C246.774 10.7678 246.056 12.4533 245.467 14.1847C245.219 14.868 243.237 18.8173 243.237 18.9267V20.0199C245.591 20.0199 249.872 13.9798 250.464 11.7523C251.001 10.987 251.125 10.0168 252.446 10.0168H254.194C255.034 10.0168 255.103 10.1261 255.295 10.6591H256.603C257.897 10.6591 258.461 9.66148 259.232 9.14219C260.815 9.14219 263.183 8.71856 263.183 7.17436C263.172 6.80463 263.097 6.43945 262.962 6.09479H262.302V5.6575H261.434C260.093 5.64641 258.755 5.77929 257.443 6.0538C256.424 6.43643 255.667 7.17436 254.414 7.17436H253.974C253.465 7.17436 253.313 7.02404 253.313 6.53209V6.31344C253.313 5.43885 254.194 4.14063 254.194 3.26604V2.6101C254.194 1.70818 251.028 0 250.065 0H248.977C248.6 0.0104883 248.228 0.0844211 247.876 0.218647C247.876 2.56911 248.688 2.58277 248.372 4.61892C248.041 6.42276 248 7.54333 247.615 9.14219ZM243.237 55.2768L242.783 59.3764V60.251H242.343V60.6883L234.896 61.3989L234.676 60.9069V60.251L234.524 60.005L242.343 55.2494L243.237 55.2768ZM239.108 32.4281L237.14 34.8196C236.038 36.4458 232.253 40.2858 232.102 42.2126C230.877 42.3629 228.495 43.7295 228.495 44.8227V46.3532C228.557 46.8503 228.649 47.3432 228.771 47.8291C229.17 48.0887 229.156 48.2664 229.638 48.2664H230.298C232.322 48.2664 233.588 45.8749 234.91 45.0003C235.034 44.5221 237.36 41.3927 237.897 40.3678C238.433 39.3428 240.099 35.8582 241.049 35.8582C241.503 35.8582 241.338 35.9401 241.916 36.0768L242.191 38.031V44.7817C242.191 45.6153 235.928 48.2664 234.965 48.485L232.762 49.5783L230.133 50.6578C228.124 51.1225 228.757 51.6008 225.756 52.0244C224.448 52.1884 222.466 52.8443 222.466 54.4158V55.7141C222.508 56.2283 222.581 56.7394 222.687 57.2446C223.306 57.3812 223.058 57.4632 223.568 57.4632C225.99 57.4632 226.238 55.7687 228.385 55.7141V55.0718L234.001 52.448C234.593 52.161 238.544 50.2615 238.819 50.2615C239.645 50.2615 239.232 50.4119 240.195 50.4802V50.0429C240.698 50.154 241.209 50.2271 241.723 50.2615H242.384V53.9649L241.503 54.4022L232.088 59.4037L229.046 60.1963V63.1071C229.046 64.337 229.555 65.4985 230.794 65.4985H231.455C231.978 65.4985 232.102 65.1432 232.542 64.8426C235.034 64.8426 236.451 63.763 238.681 63.763H239.507C241.063 63.763 241.131 64.6649 241.696 65.4985L241.971 68.9696V70.5001H241.531V72.0306L242.315 79H243.292C244.16 79 243.994 77.5241 244.6 76.6085C244.6 74.2854 245.977 72.6319 246.321 70.6914C246.452 68.1695 246.452 65.6426 246.321 63.1207L247.587 61.7542L247.67 62.0002L255.722 60.6336L257.718 60.7293L260.994 60.9753C260.595 59.1714 257.002 55.7141 255.488 55.7141C254.387 55.7141 252.102 59.4174 247.807 59.4174H246.059C246.059 58.0509 245.619 57.7639 245.619 56.37V54.6618C245.619 53.8966 246.995 53.2953 247.367 52.7077C248.537 52.3934 250.381 50.7125 252.68 50.1386C254.566 49.6739 257.126 48.9087 257.897 47.4738C257.635 46.3806 256.52 44.8637 255.268 44.8637H254.387C251.634 44.8637 251.001 45.7383 249.349 46.6129L248.908 46.8315V47.2551C249.9 47.2551 251.097 47.6514 251.097 48.6217C251.097 50.4529 247.697 51.0541 246.5 51.8877L245.632 52.1337V45.5743C245.632 44.9047 246.266 44.5084 246.734 44.2077L251.744 41.3107L252.873 41.379C254.414 40.3404 255.694 40.5317 257.69 40.0125C257.69 37.7577 255.86 37.1017 255.502 36.0905H252.652V34.1636C252.652 33.2617 253.299 32.6604 253.299 31.1162V30.8976C253.299 30.187 253.12 30.7336 252.873 29.818H250.891C250.317 29.8304 249.771 30.0602 249.363 30.4603L248.661 31.3076C249.032 32.7424 250.891 37.4843 250.891 38.1403C250.682 39.0986 250.2 39.977 249.502 40.6702C248.804 41.3634 247.919 41.842 246.954 42.0486H246.073V35.5302C246.111 35.1546 246.064 34.7753 245.934 34.4206C245.804 34.0659 245.594 33.7451 245.322 33.4821C245.049 33.2192 244.72 33.0209 244.359 32.9023C243.998 32.7837 243.614 32.7477 243.237 32.7971L244.118 30.187C244.242 28.6018 246.61 26.0874 247.835 25.4041L248.262 25.1581V24.1059H248.922V22.63L247.546 22.1927C245.651 22.1669 243.763 22.4201 241.943 22.9443C239.191 23.7642 239.948 23.7642 238.296 25.4041C236.135 27.5496 232.556 28.4105 230.67 30.023C229.142 30.433 226.541 32.2095 224.531 32.2095H222.563C222.563 34.191 224.118 36.3091 225.632 36.3091H226.293C228.082 36.3091 232.652 32.9474 233.079 31.7449L238.998 27.1669L241.407 26.675C241.778 26.675 242.067 26.9209 242.067 27.1669C241.828 27.916 241.533 28.6468 241.186 29.3534H240.98L239.108 32.4281Z"
      fill="#DEDEDE" />
    <path fill-rule="evenodd" clip-rule="evenodd"
      d="M307.464 50.9585C307.111 51.0881 306.739 51.1574 306.362 51.1635H304.835C304.835 47.2142 305.013 47.7744 306.294 45.219C307.134 43.4383 307.749 41.5609 308.124 39.6298L308.799 38.2633L313.382 37.8123L315.131 38.4683C315.235 38.969 315.308 39.4756 315.351 39.9851C315.351 40.6411 314.47 41.0784 314.47 41.7343V43.0325C313.561 43.3605 310.561 48.5807 310.533 50.2206H309.707C308.927 50.2064 308.161 50.4358 307.519 50.8765M293.052 18.0794C293.272 19.8149 296.121 19.5689 296.121 21.1268V22.22C298.874 21.9877 298.985 19.8149 301.627 19.8149H303.596V19.405H304.201C304.958 19.405 304.532 19.8286 305.289 19.8286H307.271C307.959 19.8286 307.89 19.446 308.152 18.9677C306.954 18.3937 306.61 19.0497 306.61 16.7949H305.949C304.573 16.7949 304.449 17.3688 303.334 17.4508C302.264 17.4233 301.194 17.4507 300.127 17.5328C296.906 18.1067 297.636 17.0272 294.772 18.5304L293.052 18.0794ZM298.558 32.4418H295.929V33.535C295.929 34.2866 296.369 33.863 296.369 34.6146V40.2721L294.828 40.9281C292.873 41.953 290.808 43.2375 288.909 44.1941C287.009 45.1507 285.261 47.4601 283.651 47.8974H282.99C282.583 47.4881 282.347 46.9415 282.329 46.3669C282.329 44.1394 283.348 43.4835 283.829 41.543C284.16 40.1765 284.821 37.7713 286.059 37.4434L285.894 36.3501L295.53 22.6847C293.258 22.6847 292.088 25.6091 291.097 27.003C290.106 28.3968 288.124 30.4603 287.395 31.8132C285.894 34.5463 281.448 39.9168 281.448 42.8822L280.801 43.1419L278.819 48.7584C278.241 49.6466 279.838 55.0718 281.889 55.0718H282.976C284.49 55.0718 286.266 51.3138 286.266 49.1957C288.138 48.7037 291.18 43.1009 295.034 43.1009H295.695L296.149 49.6329L297.057 50.4665H298.104C298.888 49.305 300.857 47.4055 300.953 45.4513H298.695V43.7295L298.943 41.338C300.264 40.1225 301.943 39.3607 303.733 39.1652C304.358 39.5925 304.838 40.1975 305.11 40.9007V41.1194C305.11 41.9803 304.284 42.8549 303.857 43.5791C303.372 44.426 303.041 45.3512 302.88 46.3122C302.618 47.1732 300.788 50.6305 300.058 50.9312L299.576 52.2157H298.971C295.956 52.2157 292.818 53.9649 290.203 53.9649C290.454 54.5665 290.864 55.0896 291.39 55.4792C291.915 55.8688 292.537 56.1104 293.19 56.1787L301.269 55.1128L301.806 54.4842L306.555 53.5686L312.254 52.9127C312.606 53.0469 312.978 53.1208 313.355 53.1313C314.525 53.1313 314.195 51.1225 315.103 50.0839C316.628 48.3208 318.388 46.7715 320.334 45.4786C323.169 43.2375 322.371 40.6684 324.091 39.4249L324.972 38.3316V37.498L323.885 37.0197L322.302 35.5302L316.906 34.6966L314.91 34.8196C313.694 35.018 312.513 35.386 311.4 35.9128L310.106 36.1861V35.5302H310.547C310.24 34.4224 309.872 33.3321 309.446 32.2642C309.212 31.2939 308.84 29.6541 307.698 29.6541H306.596L305.908 35.5302V36.6234C304.793 36.9104 303.086 38.7962 300.21 38.7962H298.241C296.562 38.7962 299.122 34.9562 299.122 33.7947V33.576C299.136 33.0158 298.695 32.7971 298.475 32.4555L298.558 32.4418Z"
      fill="#DEDEDE" />
    <path fill-rule="evenodd" clip-rule="evenodd"
      d="M165.742 20.1702L163.801 19.364C162.796 18.1068 162.645 17.0272 162.645 14.7314C162.645 11.315 161.915 11.8616 160.897 9.93481L159.809 10.2081L159.382 16.2619H159.148C159.435 16.6598 159.585 17.1392 159.575 17.6285V19.9516C158.716 20.3715 157.779 20.6088 156.822 20.6485C155.597 20.8262 154.73 21.6871 154.372 21.6871H153.064V22.1244H151.688C150.903 22.1244 150.834 22.6437 150.807 23.4909C152.404 23.4909 152.665 23.9282 154.097 23.9282H155.473C156.368 23.9282 156.987 23.2723 158.543 23.2723C159.217 23.2723 159.41 23.9009 159.41 24.6388C159.41 25.6091 152.982 29.1074 152.183 30.2963C152.72 30.597 152.183 30.515 152.624 30.515C154.675 30.515 162.7 28.3695 162.7 26.8253V26.6067L162.438 22.507L166.168 20.8672L165.742 20.1702ZM148.66 38.8783C146.206 39.5373 143.83 40.4535 141.571 41.6113C139.184 42.6308 136.716 43.4535 134.193 44.0711C134.193 46.6949 135.776 44.932 136.822 46.8999C138.322 46.8999 137.992 47.3372 139.011 47.3372C139.011 47.3372 146.512 43.2375 147.558 42.9916V41.4884L149.32 40.4088C151.271 39.4606 153.27 38.6123 155.308 37.867C156.974 37.1564 159.575 35.2842 160.938 34.9699C162.387 34.1896 163.932 33.6015 165.535 33.2207H166.196L165.315 36.0495C164.737 38.5093 158.433 45.506 156.643 48.1161C155.17 50.2616 153.601 51.9834 152.087 54.0332C150.821 55.7278 148.784 56.8757 147.132 59.3354L147.779 61.7269C149.94 61.7269 151.77 57.9826 152.789 56.4657C153.408 55.5364 154.289 55.3178 155.239 53.8966C155.893 52.8983 156.625 51.9524 157.428 51.0678L160.938 46.0389L162.039 46.2849L161.764 48.6627C160.387 49.6466 160.649 50.0293 159.837 51.2865L158.46 58.8981C160.566 59.4584 159.947 61.2896 163.526 61.2896C163.526 57.5726 163.526 51.5598 165.274 49.5373L167.93 47.1459C169.21 46.3396 170.876 47.3918 171.647 47.8018L172.087 51.2865V53.4593L171.082 57.3949H170.573C170.495 56.6489 170.175 55.9482 169.662 55.3985C169.148 54.8488 168.467 54.4799 167.724 54.3475H166.182L165.081 56.5204L165.714 56.985H167.283L168.66 59.5131L168.412 59.7727L165.659 58.0372L165.852 59.1578C166.168 60.333 168.605 63.0798 169.981 63.0798C171.757 63.0798 172.542 61.6449 173.202 60.3467C174.29 58.2695 174.138 58.5975 174.138 55.6184C174.138 53.5413 174.372 52.2977 174.358 50.1523C174.358 46.5719 175.198 48.3347 173.491 45.8066C172.776 45.1314 171.835 44.7421 170.848 44.7134H169.761C167.738 44.7134 166.017 46.0799 164.93 46.0799C164.726 46.1086 164.518 46.0832 164.327 46.0064C164.136 45.9296 163.969 45.8041 163.842 45.6427L163.402 45.424C163.154 45.2054 162.521 44.7681 162.521 44.3308C162.751 43.3236 163.289 42.4118 164.062 41.7207C165.232 39.3155 167.627 37.3477 169.252 34.2593C170.876 31.1709 173.078 29.859 177.428 29.7497L180.043 28.9981V28.6975H180.704C180.594 27.3309 180.36 28.2192 179.328 27.3309L174.262 25.1991C171.592 26.9483 172.321 29.2988 167.917 29.2988C167.104 30.9933 165.287 31.4852 163.347 32.1548C161.406 32.8245 159.947 33.5214 158.24 34.2593C156.563 34.9292 154.934 35.7146 153.367 36.6098C152.142 37.5117 149.816 38.072 148.66 38.8783ZM161.158 54.7712C161.158 53.9512 161.571 52.9947 162.245 52.8033L161.998 55.1948C161.998 55.5501 161.998 55.8507 161.599 55.8507C161.199 55.8507 161.158 55.5638 161.158 55.2085V54.7712Z"
      fill="#DEDEDE" />
    <path fill-rule="evenodd" clip-rule="evenodd"
      d="M199.328 39.0012C201.778 39.0012 200.828 39.1378 202.081 38.2086C202.301 38.0309 202.356 38.0583 202.466 37.7166C202.471 37.653 202.471 37.589 202.466 37.5253L202.535 37.3613C202.714 37.0197 202.714 37.6073 202.714 36.2818C202.714 36.1178 202.562 36.0358 202.383 35.5712C202.204 35.1065 201.847 34.4369 201.434 34.2866C201.021 34.1363 201.213 34.2866 200.993 34.15C200.281 33.9851 199.545 33.9435 198.818 34.027C198.094 34.464 197.478 35.0572 197.015 35.7625V37.6483C197.064 37.9442 197.22 38.2118 197.456 38.3999C197.679 38.6051 197.948 38.755 198.24 38.8372C198.433 38.8372 198.584 38.8372 198.791 38.8372C198.997 38.8372 198.997 38.9739 199.314 38.9739"
      fill="#DEDEDE" />
  </g>
  <defs>
    <clipPath id="clip0_117_19298">
      <rect width="325" height="79" fill="white" />
    </clipPath>
  </defs>
</svg>
