<svg viewBox="0 0 157 42" fill="none" xmlns="http://www.w3.org/2000/svg">
  <g clip-path="url(#clip0_127_946)">
    <path
      d="M34.9805 10.5772C34.6299 11.2228 34.202 11.8245 33.7061 12.3695C33.3048 12.1338 32.8865 11.9274 32.4546 11.752C33.3772 10.7587 34.0537 9.56769 34.4311 8.27271L35.8581 8.53629C35.7458 8.87754 35.6133 9.21198 35.4613 9.5379H39.4448V10.5772H37.2699C37.5379 10.9639 37.7631 11.378 37.9414 11.8122L36.7052 12.249C36.4823 11.6616 36.193 11.1007 35.8428 10.5772H34.9805ZM39.8645 11.4432C40.1197 11.8101 40.3322 12.2042 40.4979 12.6181H46.1907V15.2313H44.6645V13.7251H34.6676V15.2313H33.2711V12.6181H39.0403C38.8953 12.3093 38.7427 11.9855 38.5824 11.7068L39.8645 11.4432ZM36.5144 18.6955H45.0842V22.5363H43.6419V22.0844H36.5144V22.5815H35.0416V14.5535H44.2601V17.7843H36.5144V18.6955ZM36.5144 15.638V16.7149H42.8483V15.638H36.5144ZM36.5144 19.78V20.9849H43.6419V19.78H36.5144ZM46.5265 9.5379V10.5772H44.0082C44.2998 10.944 44.5553 11.3374 44.7713 11.752L43.5656 12.2792C43.2653 11.6695 42.8912 11.098 42.4515 10.5772H41.612C41.3542 11.0309 41.0499 11.4574 40.7039 11.8499C40.3266 11.5986 39.9284 11.3794 39.5134 11.1947C40.2608 10.3671 40.7856 9.36758 41.0397 8.28777L42.4515 8.53629C42.3558 8.87803 42.2359 9.21272 42.0928 9.5379H46.5265Z"
      fill="currentColor" />
    <path
      d="M52.7384 16.8278C52.5324 16.3609 52.1585 15.5702 51.7845 14.8623V22.5363H50.4033V15.8036C50.0017 17.1293 49.4217 18.3958 48.6786 19.5691C48.4782 19.0731 48.2223 18.6007 47.9155 18.1608C49.0794 16.4867 49.8916 14.5995 50.3041 12.6105H48.236V11.2851H50.4033V8.36308H51.7845V11.2851H53.5855V12.603H51.7845V13.085C52.189 13.6423 53.3108 15.4196 53.6008 15.8338L52.7384 16.8278ZM55.478 14.787C55.478 17.0462 55.1957 20.4126 53.6466 22.5513C53.3205 22.1967 52.9514 21.8831 52.5477 21.6175C53.9594 19.6595 54.0739 16.8429 54.0739 14.7719V10.532H58.0879C57.8078 9.92003 57.4705 9.33512 57.0806 8.78481L58.3016 8.27271C58.761 8.80714 59.146 9.39981 59.4463 10.0349L58.3168 10.532H62.3919V11.88H55.478V14.787ZM62.4224 20.6008V21.9188H55.2796V20.6008H58.2253V16.4739H56.058V15.171H58.2253V12.3846H59.5989V15.171H61.9493V16.4739H59.5989V20.6008H62.4224Z"
      fill="currentColor" />
    <path
      d="M77.9746 20.6761V22.0693H64.0553V20.6761H70.2594V17.1215H65.7952V15.7433H70.2594V12.6481H66.7949C66.3741 13.5002 65.8624 14.3055 65.2686 15.0505C64.8396 14.7196 64.3796 14.4296 63.895 14.1844C65.2794 12.5662 66.2526 10.6453 66.7338 8.58143L68.2601 8.92033C68.0235 9.67342 67.7411 10.5018 67.4435 11.2399H70.2823V8.36304H71.8086V11.2399H77.2649V12.6481H71.7628V15.7433H76.6391V17.1215H71.7628V20.6761H77.9746Z"
      fill="currentColor" />
    <path
      d="M93.3666 15.525H82.2708V16.2781C82.2708 18.1458 81.9885 20.9021 80.592 22.7246C80.2361 22.3359 79.8308 21.9941 79.3862 21.7079C80.6072 20.0812 80.7446 17.837 80.7446 16.248V14.1167H84.1176C83.7747 13.386 83.3607 12.6898 82.8813 12.0382L84.1481 11.5261C84.6808 12.1849 85.1341 12.9027 85.4988 13.6649L84.3847 14.1544H88.2689C88.7465 13.335 89.15 12.4756 89.4747 11.5863L91.0925 12.0909C90.6346 12.7913 90.1844 13.5444 89.757 14.1167H93.3666V15.525ZM92.9698 11.4583H80.5309V10.0801H86.1551C85.9303 9.59323 85.6622 9.12699 85.3538 8.68691L86.8266 8.27271C87.2671 8.83099 87.6409 9.43745 87.9408 10.0801H92.9698V11.4583Z"
      fill="currentColor" />
    <path
      d="M101.296 15.8036C100.838 15.4346 99.8228 14.7041 99.0673 14.1995C98.3189 15.2573 97.2739 16.0766 96.0606 16.5567C95.8025 16.1923 95.4914 15.8675 95.1372 15.5928C96.9534 14.8999 97.77 14.0037 98.1286 13.1377H95.2898V11.9855H96.3582C96.0044 11.7414 95.6319 11.5249 95.244 11.3378C96.0666 10.4723 96.6591 9.41927 96.9687 8.27271L98.2736 8.53629C98.1592 8.89024 98.0371 9.21407 97.9073 9.56049H101.967V10.7203H99.8075V11.5185C99.8075 11.6767 99.8075 11.8273 99.8075 11.9855H102.379V13.1302H99.6091L99.5633 13.2657C100.204 13.5745 101.929 14.5836 102.349 14.8773L101.296 15.8036ZM98.411 11.9855C98.411 11.8122 98.411 11.6616 98.411 11.5035V10.7504H97.3197C97.071 11.2074 96.766 11.6324 96.4116 12.0156L98.411 11.9855ZM97.4724 16.1576H107.301V22.5212H105.775V21.9941H98.907V22.5363H97.4724V16.1576ZM98.9146 17.3098V18.5148H105.783V17.3098H98.9146ZM105.783 20.8343V19.5691H98.9146V20.8117L105.783 20.8343ZM108.591 9.5379V15.0505H102.959V9.56049L108.591 9.5379ZM107.172 10.8257H104.318V13.8381H107.172V10.8257Z"
      fill="currentColor" />
    <path
      d="M111.216 21.4818C111.822 20.718 112.285 19.8534 112.582 18.9289L113.834 19.441C113.516 20.4038 113.075 21.3225 112.521 22.1747L111.216 21.4818ZM113.834 13.0246H111.232V12.1209H113.834V11.4883H111.819V10.6072H113.857V9.97458H111.438V9.0784H113.834V8.3479H115.185V9.10099H117.329V9.97458H115.185V10.6072H117.161V11.4883H115.215V12.1209H117.55V13.0246H115.215V13.7777H113.864L113.834 13.0246ZM123.396 18.2963H117.924C118.617 18.6864 119.252 19.1706 119.809 19.7347L118.886 20.5555C118.319 19.9275 117.657 19.389 116.924 18.959L117.688 18.2963H112.346V17.3097H121.969V16.5566H112.971V15.668H121.969V14.9149H112.453V13.981H123.396V18.2963ZM119.992 21.158C120.702 21.158 120.824 20.9848 120.908 19.7648C121.304 19.9823 121.731 20.1397 122.175 20.2317C121.999 21.9488 121.579 22.3479 120.122 22.3479H116.94C115.009 22.3479 114.544 21.9939 114.544 20.7212V18.8535H115.971V20.6911C115.971 21.0978 116.123 21.143 117.031 21.143L119.992 21.158ZM120.542 13.0698H118.039V12.1586H120.542V11.4883H118.519V10.6072H120.542V9.97458H118.191V9.0784H120.542V8.3479H121.908V9.10099H124.403V9.97458H121.908V10.6072H124.136V11.4883H121.908V12.1586H124.678V13.0547H121.908V13.7476H120.542V13.0698ZM123.541 18.8159C124.192 19.7139 124.723 20.6909 125.12 21.7228L123.693 22.137C123.309 21.0951 122.796 20.1036 122.167 19.1849L123.541 18.8159Z"
      fill="currentColor" />
    <path
      d="M131.546 18.4018C130.561 19.6584 129.393 20.7648 128.081 21.6853C127.692 21.324 127.268 21.0011 126.814 20.7213C128.073 19.9935 129.179 19.0349 130.073 17.8972L131.546 18.4018ZM134.545 16.9483V20.8343C134.545 21.5874 134.369 21.979 133.782 22.1898C132.954 22.4055 132.095 22.4844 131.241 22.4233C131.13 21.9295 130.944 21.4548 130.691 21.015C131.37 21.0499 132.05 21.0499 132.729 21.015C132.98 21.015 133.042 20.9548 133.042 20.774V17.0086C129.081 17.3173 128.463 17.4077 127.982 17.5809C127.906 17.3324 127.7 16.6621 127.547 16.2781C128.306 16.1115 129.035 15.8295 129.707 15.4421C130.64 14.9867 131.55 14.484 132.431 13.9359C129.585 14.1242 129.081 14.1995 128.753 14.32C128.641 13.8905 128.504 13.468 128.341 13.0548C128.765 12.9424 129.161 12.7422 129.501 12.4674C130.317 11.8866 131.083 11.2391 131.79 10.532C130.424 10.6449 129.096 10.7202 127.829 10.7654C127.768 10.3336 127.645 9.91263 127.463 9.51529C131.084 9.43012 134.692 9.06246 138.254 8.41577L139.291 9.5906C137.487 9.98378 135.66 10.268 133.82 10.4416C132.886 11.3612 131.881 12.2073 130.813 12.972L134.324 12.7912C135.125 12.249 135.934 11.6616 136.674 11.0591L137.765 11.9854C135.732 13.5293 133.546 14.8666 131.241 15.9768L137.17 15.5852C136.788 15.2011 136.407 14.8321 136.071 14.4932L137.185 13.9209C138.345 14.9534 139.384 16.1103 140.284 17.37L139.139 18.0629C138.832 17.5781 138.487 17.1173 138.109 16.6847L134.545 16.9483ZM136.834 17.8144C138.13 18.7172 139.348 19.7248 140.474 20.8267L139.208 21.6777C138.12 20.5354 136.932 19.4896 135.659 18.5524L136.834 17.8144Z"
      fill="currentColor" />
    <path
      d="M147.35 16.0522C147.303 16.4802 147.303 16.9119 147.35 17.3399C143.534 18.1683 142.962 18.3416 142.619 18.56C142.481 18.1021 142.318 17.652 142.13 17.2119C142.489 17.1366 142.848 16.7827 143.336 16.2103C143.818 15.6525 144.269 15.0693 144.687 14.4631C143.942 14.4798 143.205 14.6146 142.504 14.8623C142.368 14.3657 142.195 13.8799 141.985 13.4088C142.283 13.3335 142.581 12.9871 142.916 12.4825C143.773 11.1633 144.472 9.75065 145 8.27271L146.526 8.93543C145.852 10.4638 145.021 11.9199 144.046 13.2808L145.618 13.1302C145.963 12.5966 146.277 12.0433 146.556 11.4734L147.823 12.2264C146.93 13.7516 145.909 15.2001 144.771 16.5567L147.35 16.0522ZM147.579 20.0134C145.839 20.646 143.977 21.2937 142.55 21.7907L142.191 20.3222C143.489 19.9833 145.435 19.3507 147.335 18.7633L147.579 20.0134ZM150.83 15.9618C150.7 19.298 150.25 21.3615 147.442 22.5664C147.214 22.1228 146.912 21.7205 146.549 21.3765C149.006 20.4276 149.288 18.8085 149.403 15.9618H150.83ZM155.203 16.3609C155.031 15.9835 154.838 15.6163 154.623 15.2614C149.121 15.7886 148.411 15.8865 147.961 16.0672C147.84 15.5914 147.682 15.1256 147.487 14.674C147.877 14.6188 148.243 14.4541 148.541 14.1995C149.235 13.4327 149.882 12.6254 150.479 11.7821H147.846V10.4868H151.501C151.326 9.9747 151.013 9.22913 150.738 8.64172L152.104 8.31789C152.439 8.92278 152.732 9.54927 152.982 10.1931L151.997 10.4868H156.347V11.7821H152.226C151.601 12.6331 150.838 13.6724 150.189 14.4631L153.951 14.1318C153.638 13.6874 153.341 13.2356 153.043 12.8515L154.172 12.2792C155.034 13.3516 155.8 14.4955 156.462 15.6982L155.203 16.3609ZM154.92 21.0753C155.203 21.0753 155.264 20.7515 155.309 18.8838C155.685 19.1434 156.103 19.337 156.546 19.4561C156.439 21.7154 156.111 22.3028 155.019 22.3028H153.791C152.585 22.3028 152.265 21.8811 152.265 20.5858V15.9467H153.692V20.5557C153.692 20.9849 153.737 21.0452 154.02 21.0452L154.92 21.0753Z"
      fill="currentColor" />
    <path
      d="M33.1719 26.5579H34.8202C36.0336 26.5579 36.8959 26.9645 36.8959 28.177C36.8959 29.3895 36.0336 29.8941 34.8507 29.8941H34.0266V31.9274H33.1719V26.5579ZM34.7439 29.2163C35.6215 29.2163 36.0336 28.8849 36.0336 28.177C36.0336 27.4691 35.6062 27.2356 34.7439 27.2356H34.0266V29.2163H34.7439Z"
      fill="currentColor" />
    <path
      d="M37.7964 26.6633C37.7962 26.5947 37.8104 26.5268 37.838 26.4639C37.8657 26.401 37.9062 26.3445 37.9571 26.2978C38.008 26.2511 38.0681 26.2153 38.1337 26.1927C38.1993 26.17 38.2689 26.161 38.3382 26.1662C38.4718 26.1662 38.5999 26.2186 38.6943 26.3118C38.7888 26.405 38.8419 26.5314 38.8419 26.6633C38.8419 26.7951 38.7888 26.9215 38.6943 27.0147C38.5999 27.1079 38.4718 27.1603 38.3382 27.1603C38.2689 27.1655 38.1993 27.1565 38.1337 27.1339C38.0681 27.1112 38.008 27.0754 37.9571 27.0287C37.9062 26.9821 37.8657 26.9255 37.838 26.8626C37.8104 26.7997 37.7962 26.7318 37.7964 26.6633ZM37.9185 27.9134H38.7579V31.9274H37.8803L37.9185 27.9134Z"
      fill="currentColor" />
    <path
      d="M39.9941 30.986V26.1135H40.8488V31.0312C40.8488 31.2572 40.948 31.3325 41.0549 31.3325H41.1922L41.3067 31.9651C41.1592 32.0136 41.0043 32.0366 40.8488 32.0328C40.2307 32.0253 39.9941 31.6186 39.9941 30.986Z"
      fill="currentColor" />
    <path
      d="M41.9096 29.924C41.892 29.6676 41.9262 29.4102 42.0102 29.1669C42.0941 28.9235 42.2261 28.699 42.3986 28.5064C42.5711 28.3138 42.7806 28.1568 43.015 28.0447C43.2493 27.9325 43.5039 27.8674 43.764 27.853C44.8476 27.853 45.4276 28.6061 45.4276 29.7132C45.4395 29.846 45.4395 29.9795 45.4276 30.1123H42.749C42.7469 30.2744 42.778 30.4352 42.8403 30.5851C42.9027 30.7351 42.995 30.8711 43.1119 30.985C43.2287 31.0989 43.3677 31.1884 43.5203 31.248C43.673 31.3077 43.8364 31.3364 44.0006 31.3323C44.3463 31.3334 44.6842 31.231 44.9697 31.0386L45.2673 31.5658C44.8634 31.8415 44.3849 31.9911 43.8937 31.995C43.6223 31.9988 43.353 31.947 43.1029 31.8427C42.8528 31.7385 42.6274 31.5841 42.4409 31.3895C42.2544 31.1948 42.1109 30.964 42.0194 30.7118C41.928 30.4595 41.8906 30.1913 41.9096 29.924ZM44.6645 29.5625C44.6645 28.8697 44.344 28.4706 43.7487 28.4706C43.4667 28.486 43.2015 28.6081 43.0082 28.8115C42.815 29.0148 42.7085 29.2838 42.7109 29.5625H44.6645Z"
      fill="currentColor" />
    <path
      d="M48.1138 26.5579H49.7621C50.9755 26.5579 51.8378 26.9645 51.8378 28.177C51.8378 29.3895 50.9755 29.8941 49.785 29.8941H48.9685V31.9274H48.1138V26.5579ZM49.7087 29.2163C50.5786 29.2163 50.9907 28.8849 50.9907 28.177C50.9907 27.4691 50.5405 27.2356 49.6782 27.2356H48.9685V29.2163H49.7087Z"
      fill="currentColor" />
    <path
      d="M52.8145 27.9134H53.5089L53.5776 28.6665C53.6805 28.4387 53.8442 28.2427 54.0512 28.0994C54.2582 27.9562 54.5006 27.8711 54.7528 27.8532C54.9099 27.8443 55.0669 27.8727 55.2106 27.936L55.058 28.6891C54.9282 28.6434 54.7914 28.6205 54.6536 28.6213C54.3178 28.6213 53.8905 28.8472 53.6615 29.4874V31.9876H52.8145V27.9134Z"
      fill="currentColor" />
    <path
      d="M55.4702 29.9242C55.4274 29.6525 55.4447 29.3749 55.5209 29.1104C55.5971 28.846 55.7304 28.6009 55.9117 28.3921C56.0929 28.1833 56.3178 28.0157 56.5709 27.9008C56.824 27.7858 57.0993 27.7263 57.378 27.7263C57.6566 27.7263 57.9319 27.7858 58.185 27.9008C58.4381 28.0157 58.663 28.1833 58.8442 28.3921C59.0255 28.6009 59.1588 28.846 59.235 29.1104C59.3112 29.3749 59.3285 29.6525 59.2858 29.9242C59.3201 30.1914 59.2964 30.4628 59.2162 30.7203C59.136 30.9778 59.0012 31.2155 58.8207 31.4176C58.6403 31.6197 58.4183 31.7815 58.1695 31.8924C57.9207 32.0033 57.6509 32.0606 57.378 32.0606C57.105 32.0606 56.8352 32.0033 56.5864 31.8924C56.3377 31.7815 56.1157 31.6197 55.9352 31.4176C55.7547 31.2155 55.6199 30.9778 55.5397 30.7203C55.4596 30.4628 55.4358 30.1914 55.4702 29.9242ZM58.4234 29.9242C58.4234 29.0732 58.0266 28.5084 57.3856 28.5084C56.7446 28.5084 56.3477 29.0732 56.3477 29.9242C56.3477 30.7752 56.7446 31.3325 57.3856 31.3325C58.0266 31.3325 58.4005 30.7752 58.4005 29.9242H58.4234Z"
      fill="currentColor" />
    <path
      d="M60.0185 29.9243C59.9943 29.6748 60.0205 29.4232 60.0954 29.1838C60.1704 28.9444 60.2926 28.722 60.455 28.5295C60.6175 28.3369 60.817 28.1781 61.042 28.062C61.267 27.9459 61.5131 27.875 61.766 27.8532C61.9692 27.8531 62.1704 27.893 62.3578 27.9705C62.5452 28.0481 62.715 28.1619 62.8573 28.3051L62.8191 27.6348V26.1287H63.6738V31.9425H62.9794L62.9031 31.4907C62.7524 31.6548 62.5703 31.7878 62.3673 31.8821C62.1643 31.9765 61.9444 32.0303 61.7202 32.0404C60.69 32.0254 60.0185 31.2572 60.0185 29.9243ZM62.8191 30.8656V28.8775C62.7019 28.7619 62.5627 28.6704 62.4094 28.6084C62.2562 28.5463 62.0919 28.5149 61.9263 28.516C61.3616 28.516 60.9037 29.0431 60.9037 29.9167C60.9037 30.7903 61.2624 31.3325 61.8957 31.3325C62.0754 31.3285 62.2518 31.2844 62.4117 31.2036C62.5716 31.1227 62.7109 31.0072 62.8191 30.8656Z"
      fill="currentColor" />
    <path
      d="M64.895 30.4362V27.9133H65.7497V30.3383C65.7497 31.0311 65.9481 31.3022 66.4289 31.3022C66.9097 31.3022 67.0623 31.1215 67.4057 30.6998V27.9133H68.2527V31.9273H67.5583L67.4896 31.3248C67.338 31.5347 67.1392 31.7071 66.9089 31.8286C66.6785 31.9501 66.4229 32.0174 66.1618 32.0252C65.2689 32.0252 64.895 31.4604 64.895 30.4362Z"
      fill="currentColor" />
    <path
      d="M69.2445 29.9241C69.2299 29.656 69.2711 29.3877 69.3656 29.1359C69.4601 28.8841 69.6059 28.6541 69.7939 28.4601C69.982 28.266 70.2083 28.112 70.459 28.0077C70.7097 27.9033 70.9794 27.8507 71.2515 27.8531C71.6928 27.8524 72.1181 28.0165 72.4419 28.3125L72.0222 28.8547C71.9224 28.7556 71.8034 28.6772 71.6723 28.6241C71.5413 28.5711 71.4008 28.5445 71.2591 28.546C70.5799 28.546 70.0915 29.1108 70.0915 29.9618C70.0915 30.8128 70.557 31.3701 71.2362 31.3701C71.5759 31.351 71.8966 31.2089 72.1367 30.9709L72.4877 31.5282C72.1225 31.8452 71.6538 32.0216 71.1675 32.0252C70.8967 32.0268 70.6286 31.9718 70.3807 31.864C70.1329 31.7562 69.9109 31.5979 69.7294 31.3995C69.5478 31.2012 69.4108 30.9672 69.3272 30.7129C69.2436 30.4587 69.2154 30.1899 69.2445 29.9241Z"
      fill="currentColor" />
    <path
      d="M73.4038 30.6169V28.6062H72.8086V27.9811L73.442 27.9359L73.5336 26.8289H74.2509V27.9359H75.3116V28.6062H74.2509V30.647C74.2509 31.129 74.4188 31.4001 74.8461 31.4001C74.9956 31.397 75.1431 31.3664 75.2811 31.3098L75.4337 31.9273C75.1887 32.016 74.9313 32.0668 74.6706 32.0779C73.7167 32.0252 73.4038 31.4604 73.4038 30.6169Z"
      fill="currentColor" />
    <path
      d="M76.0747 26.6633C76.0745 26.5947 76.0887 26.5268 76.1163 26.4639C76.144 26.401 76.1846 26.3445 76.2355 26.2978C76.2863 26.2511 76.3465 26.2153 76.412 26.1927C76.4776 26.17 76.5472 26.161 76.6165 26.1662C76.7501 26.1662 76.8782 26.2186 76.9727 26.3118C77.0671 26.405 77.1202 26.5314 77.1202 26.6633C77.1202 26.7951 77.0671 26.9215 76.9727 27.0147C76.8782 27.1079 76.7501 27.1603 76.6165 27.1603C76.5472 27.1655 76.4776 27.1565 76.412 27.1339C76.3465 27.1112 76.2863 27.0754 76.2355 27.0287C76.1846 26.9821 76.144 26.9255 76.1163 26.8626C76.0887 26.7997 76.0745 26.7318 76.0747 26.6633ZM76.1968 27.9134H77.0362V31.9274H76.1968V27.9134Z"
      fill="currentColor" />
    <path
      d="M78.0283 29.9242C77.9855 29.6525 78.0028 29.3749 78.079 29.1104C78.1552 28.846 78.2885 28.6009 78.4698 28.3921C78.651 28.1833 78.8759 28.0157 79.129 27.9008C79.3821 27.7858 79.6575 27.7263 79.9361 27.7263C80.2147 27.7263 80.49 27.7858 80.7431 27.9008C80.9962 28.0157 81.2211 28.1833 81.4023 28.3921C81.5836 28.6009 81.7169 28.846 81.7931 29.1104C81.8693 29.3749 81.8866 29.6525 81.8439 29.9242C81.8782 30.1914 81.8545 30.4628 81.7743 30.7203C81.6941 30.9778 81.5593 31.2155 81.3788 31.4176C81.1984 31.6197 80.9764 31.7815 80.7276 31.8924C80.4788 32.0033 80.209 32.0606 79.9361 32.0606C79.6631 32.0606 79.3933 32.0033 79.1445 31.8924C78.8958 31.7815 78.6738 31.6197 78.4933 31.4176C78.3128 31.2155 78.178 30.9778 78.0978 30.7203C78.0177 30.4628 77.9939 30.1914 78.0283 29.9242ZM80.9815 29.9242C80.9815 29.0732 80.5847 28.5084 79.9437 28.5084C79.3027 28.5084 78.9059 29.0732 78.9059 29.9242C78.9059 30.7752 79.3027 31.3325 79.9437 31.3325C80.5847 31.3325 80.9815 30.7752 80.9815 29.9242Z"
      fill="currentColor" />
    <path
      d="M82.8203 27.9133H83.5834L83.6521 28.4706C83.8209 28.2859 84.0252 28.1362 84.2532 28.0302C84.4811 27.9241 84.7282 27.8639 84.9799 27.853C85.8423 27.853 86.2315 28.4178 86.2315 29.4421V31.9649H85.3768V29.5023C85.3768 28.8095 85.1707 28.5308 84.69 28.5308C84.4938 28.549 84.3036 28.6072 84.1315 28.7019C83.9594 28.7965 83.8091 28.9255 83.6903 29.0806V31.9273H82.8203V27.9133Z"
      fill="currentColor" />
    <path d="M89.2002 26.5579H90.0549V31.9274H89.2002V26.5579Z" fill="currentColor" />
    <path
      d="M91.4058 27.9133H92.1002L92.1689 28.4706C92.3385 28.285 92.5441 28.1348 92.7734 28.0287C93.0028 27.9227 93.2513 27.8629 93.5043 27.853C94.3667 27.853 94.7559 28.4178 94.7559 29.4421V31.9649H93.9317V29.5023C93.9317 28.8095 93.7256 28.5308 93.2449 28.5308C93.0497 28.5486 92.8605 28.6067 92.6895 28.7015C92.5186 28.7962 92.3698 28.9254 92.2528 29.0806V31.9273H91.4058V27.9133Z"
      fill="currentColor" />
    <path
      d="M96.1524 30.6169V28.6062H95.5571V27.9811L96.1905 27.9359L96.2821 26.8289H96.9994V27.9359H98.0831V28.6062H96.9994V30.647C96.9994 31.129 97.1673 31.4001 97.5947 31.4001C97.7441 31.397 97.8916 31.3664 98.0296 31.3098L98.1823 31.9273C97.9373 32.016 97.6799 32.0668 97.4191 32.0779C96.4652 32.0252 96.1524 31.4604 96.1524 30.6169Z"
      fill="currentColor" />
    <path
      d="M98.5255 29.924C98.5089 29.6684 98.5435 29.412 98.6274 29.1696C98.7112 28.9271 98.8427 28.7033 99.0142 28.511C99.1856 28.3187 99.3938 28.1616 99.6269 28.0487C99.8599 27.9358 100.113 27.8693 100.372 27.853C101.448 27.853 102.028 28.6061 102.028 29.7508C102.043 29.8936 102.043 30.0374 102.028 30.1801H99.3649C99.3638 30.3425 99.3958 30.5035 99.459 30.6535C99.5222 30.8035 99.6153 30.9394 99.7327 31.0532C99.8502 31.167 99.9896 31.2563 100.143 31.3159C100.296 31.3755 100.46 31.4041 100.624 31.4001C100.969 31.3989 101.307 31.2966 101.593 31.1064L101.898 31.6185C101.495 31.8942 101.016 32.0438 100.525 32.0478C100.247 32.0544 99.9714 32.0028 99.7155 31.8963C99.4596 31.7899 99.2295 31.631 99.0405 31.4302C98.8515 31.2295 98.7079 30.9914 98.6191 30.7317C98.5303 30.4721 98.4984 30.1968 98.5255 29.924ZM101.311 29.5625C101.311 28.8697 100.99 28.4706 100.403 28.4706C100.12 28.486 99.854 28.6078 99.6595 28.8109C99.465 29.0141 99.3568 29.2831 99.3573 29.5625H101.311Z"
      fill="currentColor" />
    <path
      d="M102.99 30.986V26.1135H103.837V31.0312C103.837 31.2572 103.936 31.3325 104.043 31.3325H104.188L104.302 31.9651C104.155 32.0136 104 32.0366 103.844 32.0328C103.219 32.0253 102.99 31.6186 102.99 30.986Z"
      fill="currentColor" />
    <path
      d="M105.195 30.986V26.1135H106.035V31.0312C106.035 31.2572 106.142 31.3325 106.241 31.3325H106.386L106.493 31.9651C106.345 32.0142 106.19 32.0372 106.035 32.0328C105.424 32.0253 105.195 31.6186 105.195 30.986Z"
      fill="currentColor" />
    <path
      d="M107.278 26.6632C107.278 26.5954 107.292 26.5282 107.319 26.4658C107.347 26.4034 107.386 26.3473 107.436 26.3007C107.487 26.2541 107.546 26.2182 107.61 26.195C107.675 26.1719 107.744 26.1621 107.813 26.1662C107.946 26.1662 108.074 26.2186 108.169 26.3118C108.263 26.405 108.316 26.5314 108.316 26.6632C108.316 26.7951 108.263 26.9215 108.169 27.0147C108.074 27.1079 107.946 27.1603 107.813 27.1603C107.744 27.1644 107.675 27.1546 107.61 27.1315C107.546 27.1083 107.487 27.0724 107.436 27.0258C107.386 26.9792 107.347 26.923 107.319 26.8607C107.292 26.7983 107.278 26.7311 107.278 26.6632ZM107.393 27.9134H108.24V31.9274H107.393V27.9134Z"
      fill="currentColor" />
    <path
      d="M109.217 32.673C109.229 32.4885 109.29 32.3105 109.395 32.157C109.5 32.0036 109.643 31.8802 109.812 31.7994C109.696 31.7315 109.6 31.6344 109.534 31.5179C109.469 31.4015 109.435 31.2699 109.438 31.1367C109.449 30.9855 109.496 30.8389 109.574 30.7082C109.652 30.5776 109.76 30.4666 109.888 30.3836C109.726 30.2547 109.595 30.092 109.504 29.9071C109.413 29.7222 109.364 29.5198 109.362 29.3142C109.359 29.1139 109.399 28.9152 109.478 28.7307C109.557 28.5462 109.675 28.38 109.822 28.2427C109.97 28.1053 110.145 27.9997 110.337 27.9327C110.528 27.8657 110.731 27.8386 110.934 27.8532C111.137 27.8506 111.338 27.8838 111.529 27.9511H112.964V28.5762H112.201C112.38 28.7865 112.475 29.0544 112.468 29.3293C112.47 29.5219 112.431 29.7128 112.353 29.8895C112.275 30.0662 112.16 30.2247 112.016 30.3547C111.872 30.4848 111.702 30.5834 111.517 30.6442C111.332 30.705 111.136 30.7265 110.941 30.7074C110.744 30.7074 110.549 30.6663 110.369 30.587C110.302 30.6357 110.247 30.6991 110.208 30.7722C110.17 30.8454 110.149 30.9263 110.148 31.0087C110.148 31.2497 110.316 31.4003 110.835 31.4003H111.598C112.559 31.4003 113.063 31.694 113.063 32.3793C113.063 33.0646 112.239 33.7801 110.934 33.7801C109.926 33.7273 109.217 33.3734 109.217 32.673ZM112.216 32.4622C112.216 32.1233 111.949 32.0254 111.453 32.0254H110.835C110.652 32.0252 110.471 32.005 110.293 31.9651C110.193 32.0281 110.109 32.1134 110.048 32.214C109.987 32.3147 109.95 32.428 109.942 32.545C109.942 32.9441 110.354 33.1776 111.033 33.1776C111.712 33.1776 112.216 32.8312 112.216 32.4622ZM111.705 29.254C111.705 29.0542 111.624 28.8627 111.481 28.7215C111.338 28.5802 111.144 28.5009 110.941 28.5009C110.739 28.5009 110.545 28.5802 110.402 28.7215C110.259 28.8627 110.178 29.0542 110.178 29.254C110.178 29.4537 110.259 29.6453 110.402 29.7865C110.545 29.9277 110.739 30.0071 110.941 30.0071C111.144 30.0071 111.338 29.9277 111.481 29.7865C111.624 29.6453 111.705 29.4537 111.705 29.254Z"
      fill="currentColor" />
    <path
      d="M113.345 29.9241C113.323 29.6642 113.355 29.4027 113.437 29.1549C113.519 28.9071 113.651 28.6782 113.825 28.4816C113.998 28.285 114.21 28.1248 114.448 28.0103C114.685 27.8959 114.943 27.8296 115.207 27.8154C116.283 27.8154 116.863 28.5685 116.863 29.7132C116.878 29.856 116.878 29.9998 116.863 30.1425H114.223C114.222 30.3049 114.254 30.4659 114.317 30.6159C114.38 30.7659 114.473 30.9018 114.591 31.0156C114.708 31.1294 114.847 31.2187 115.001 31.2783C115.154 31.3379 115.317 31.3665 115.482 31.3625C115.827 31.3613 116.165 31.2591 116.451 31.0688L116.741 31.596C116.337 31.8717 115.859 32.0213 115.367 32.0252C115.09 32.0348 114.814 31.9861 114.557 31.8824C114.3 31.7788 114.068 31.6225 113.877 31.4239C113.686 31.2252 113.54 30.9889 113.448 30.7303C113.356 30.4718 113.321 30.197 113.345 29.9241ZM116.131 29.5626C116.131 28.8698 115.81 28.4706 115.222 28.4706C114.94 28.486 114.674 28.6079 114.479 28.811C114.285 29.0141 114.177 29.2831 114.177 29.5626H116.131Z"
      fill="currentColor" />
    <path
      d="M117.833 27.9133H118.527L118.596 28.4706C118.763 28.2779 118.969 28.1206 119.2 28.0081C119.43 27.8955 119.682 27.83 119.939 27.8154C120.809 27.8154 121.19 28.3802 121.19 29.4045V31.9273H120.366V29.5024C120.366 28.8095 120.152 28.5309 119.672 28.5309C119.476 28.5487 119.287 28.6068 119.116 28.7015C118.945 28.7962 118.797 28.9254 118.68 29.0806V31.9273H117.833V27.9133Z"
      fill="currentColor" />
    <path
      d="M122.152 29.9242C122.133 29.6526 122.171 29.3801 122.264 29.1238C122.357 28.8676 122.503 28.633 122.692 28.435C122.881 28.2369 123.11 28.0796 123.363 27.973C123.617 27.8664 123.891 27.8128 124.166 27.8155C124.608 27.8148 125.033 27.9789 125.357 28.2749L124.937 28.8171C124.837 28.718 124.718 28.6396 124.587 28.5866C124.456 28.5335 124.316 28.5069 124.174 28.5084C123.495 28.5084 123.007 29.0732 123.007 29.9242C123.007 30.7752 123.472 31.3325 124.151 31.3325C124.481 31.3201 124.794 31.1918 125.036 30.971L125.387 31.5283C125.022 31.8452 124.554 32.0217 124.067 32.0253C123.797 32.0246 123.531 31.9681 123.284 31.8594C123.038 31.7507 122.817 31.5923 122.637 31.3943C122.456 31.1963 122.32 30.9632 122.236 30.71C122.153 30.4568 122.124 30.1891 122.152 29.9242Z"
      fill="currentColor" />
    <path
      d="M125.784 29.9241C125.761 29.6646 125.792 29.4032 125.873 29.1555C125.955 28.9078 126.086 28.6787 126.259 28.482C126.432 28.2853 126.643 28.1249 126.88 28.0104C127.117 27.8959 127.375 27.8296 127.639 27.8154C128.722 27.8154 129.295 28.5685 129.295 29.7132C129.296 29.8572 129.284 30.001 129.256 30.1425H126.616C126.615 30.3023 126.646 30.4608 126.707 30.6088C126.769 30.7568 126.859 30.8913 126.973 31.0047C127.087 31.1181 127.223 31.2081 127.373 31.2695C127.522 31.3309 127.683 31.3625 127.845 31.3625C128.19 31.3622 128.528 31.2599 128.814 31.0688L129.111 31.596C128.707 31.8696 128.229 32.019 127.738 32.0252C127.466 32.0263 127.197 31.9713 126.947 31.8638C126.698 31.7563 126.474 31.5985 126.29 31.4008C126.107 31.203 125.967 30.9694 125.879 30.7152C125.792 30.4609 125.76 30.1914 125.784 29.9241ZM128.562 29.5626C128.562 28.8698 128.249 28.4706 127.654 28.4706C127.371 28.486 127.105 28.6079 126.911 28.811C126.716 29.0141 126.608 29.2831 126.608 29.5626H128.562Z"
      fill="currentColor" />
    <path
      d="M131.599 31.2345L132.103 30.6471C132.482 31.0404 133.003 31.2704 133.553 31.2872C134.209 31.2872 134.575 30.9785 134.575 30.5341C134.575 30.0898 134.209 29.894 133.705 29.6756L132.942 29.3518C132.63 29.2638 132.354 29.0797 132.155 28.8265C131.956 28.5732 131.844 28.2639 131.836 27.9435C131.847 27.7268 131.903 27.5147 132 27.3201C132.097 27.1254 132.233 26.9523 132.4 26.8114C132.567 26.6704 132.762 26.5645 132.972 26.5002C133.182 26.4359 133.403 26.4145 133.621 26.4373C133.928 26.4355 134.232 26.4946 134.515 26.6111C134.798 26.7275 135.055 26.8989 135.27 27.1151L134.819 27.6573C134.499 27.3486 134.069 27.1757 133.621 27.1753C133.072 27.1753 132.706 27.4389 132.706 27.8682C132.706 28.2974 133.141 28.5008 133.583 28.6815L134.346 28.9903C134.673 29.077 134.961 29.2683 135.165 29.5341C135.37 29.7999 135.479 30.1252 135.476 30.4588C135.463 30.689 135.402 30.9142 135.297 31.1201C135.192 31.326 135.045 31.5082 134.865 31.6553C134.685 31.8025 134.476 31.9113 134.252 31.9749C134.027 32.0386 133.792 32.0557 133.56 32.0253C133.196 32.0298 132.835 31.9622 132.498 31.8263C132.162 31.6905 131.856 31.4892 131.599 31.2345Z"
      fill="currentColor" />
    <path
      d="M138.193 32.1683C137.872 33.0268 137.429 33.6067 136.582 33.6067C136.411 33.6108 136.24 33.5827 136.079 33.5239L136.239 32.8687C136.335 32.9026 136.435 32.9228 136.537 32.9289C136.979 32.9289 137.239 32.6051 137.384 32.1758L137.468 31.8972L135.857 27.9133H136.727L137.49 29.9768C137.605 30.3383 137.735 30.7299 137.857 31.1064L138.177 29.9768L138.826 27.9133H139.65L138.193 32.1683Z"
      fill="currentColor" />
    <path
      d="M139.994 31.4679L140.39 30.9257C140.706 31.2101 141.115 31.3731 141.543 31.3851C142.031 31.3851 142.26 31.1516 142.26 30.8504C142.26 30.5492 141.802 30.3232 141.36 30.1575C140.917 29.9919 140.2 29.668 140.2 28.9827C140.2 28.2974 140.749 27.8154 141.642 27.8154C142.124 27.8216 142.589 27.9889 142.962 28.2899L142.565 28.802C142.309 28.5918 141.99 28.4701 141.657 28.4556C141.215 28.4556 141.001 28.674 141.001 28.9526C141.001 29.2312 141.428 29.427 141.871 29.5852C142.436 29.7961 143.069 30.0446 143.069 30.8052C143.069 31.5658 142.527 32.0252 141.543 32.0252C140.977 32.0192 140.431 31.8226 139.994 31.4679Z"
      fill="currentColor" />
    <path
      d="M143.939 30.6169V28.6062H143.344V27.9811L143.977 27.9359L144.069 26.8289H144.786V27.9359H145.847V28.6062H144.786V30.647C144.786 31.129 144.954 31.4001 145.381 31.4001C145.531 31.397 145.678 31.3664 145.816 31.3098L145.969 31.9273C145.724 32.0161 145.466 32.0669 145.206 32.0779C144.252 32.0252 143.939 31.4604 143.939 30.6169Z"
      fill="currentColor" />
    <path
      d="M146.32 29.9241C146.297 29.6646 146.327 29.4032 146.408 29.1555C146.49 28.9078 146.621 28.6787 146.794 28.482C146.967 28.2853 147.178 28.1249 147.415 28.0104C147.652 27.8959 147.91 27.8296 148.174 27.8154C149.25 27.8154 149.83 28.5685 149.83 29.7132C149.832 29.8572 149.819 30.001 149.792 30.1425H147.151C147.15 30.3082 147.183 30.4724 147.249 30.625C147.314 30.7776 147.411 30.9153 147.532 31.0297C147.654 31.144 147.798 31.2325 147.956 31.2898C148.113 31.347 148.281 31.3718 148.449 31.3625C148.794 31.3613 149.131 31.2591 149.418 31.0688L149.708 31.596C149.304 31.8717 148.825 32.0213 148.334 32.0252C148.057 32.0349 147.781 31.9862 147.524 31.8825C147.268 31.7788 147.037 31.6223 146.846 31.4236C146.656 31.2248 146.51 30.9883 146.419 30.7298C146.328 30.4712 146.294 30.1966 146.32 29.9241ZM149.097 29.5626C149.097 28.8698 148.777 28.4706 148.189 28.4706C147.906 28.486 147.64 28.6079 147.446 28.811C147.251 29.0141 147.143 29.2831 147.144 29.5626H149.097Z"
      fill="currentColor" />
    <path
      d="M150.776 27.9135H151.501L151.57 28.4783C151.721 28.2873 151.912 28.1297 152.129 28.0156C152.345 27.9015 152.584 27.8333 152.829 27.8156C153.075 27.7949 153.321 27.8585 153.525 27.9957C153.73 28.1328 153.88 28.3351 153.951 28.5687C154.105 28.3586 154.302 28.183 154.53 28.0533C154.757 27.9235 155.01 27.8425 155.271 27.8156C156.126 27.8156 156.523 28.3804 156.523 29.4046V31.9275H155.676V29.5025C155.676 28.8097 155.454 28.531 154.996 28.531C154.813 28.5573 154.637 28.6194 154.478 28.7138C154.32 28.8083 154.182 28.933 154.073 29.0808V31.9275H153.226V29.5025C153.226 28.8097 153.012 28.531 152.547 28.531C152.365 28.5578 152.19 28.6203 152.033 28.7147C151.875 28.8091 151.739 28.9335 151.631 29.0808V31.9275H150.784L150.776 27.9135Z"
      fill="currentColor" />
  </g>
  <g clip-path="url(#clip1_127_946)">
    <path fill-rule="evenodd" clip-rule="evenodd"
      d="M25.2 42H16.7982V33.5979H15.5412V29.4021H14.2788V25.2011H12.5973H10.9212V29.4021H9.65885V33.5979H8.40177V42H0V21V0H8.40177V8.40212H9.65885V12.5979H10.9212V16.7989H12.5973H14.2788V12.5979H15.5412V8.40212H16.7982V0H25.2V21V42Z"
      fill="#00873C" />
    <path
      d="M22.5373 23.4082H23.3859V18.3956H22.5373V23.4082ZM18.294 23.4772H19.1426V21.3077H20.7339V23.4772H21.5772V18.4645H20.771V20.4325H19.1797V18.4645H18.3311L18.294 23.4772ZM15.7374 23.6045C15.9416 23.6164 16.1462 23.5856 16.3379 23.5141C16.5296 23.4426 16.7044 23.332 16.8511 23.1893C16.9978 23.0467 17.1131 22.875 17.1899 22.6853C17.2666 22.4956 17.303 22.292 17.2968 22.0874C17.3158 21.7993 17.2435 21.5125 17.0902 21.2678C16.9369 21.023 16.7103 20.8328 16.4428 20.7242L15.9124 20.4484C15.5517 20.2786 15.2494 20.1513 15.2494 19.7906C15.2494 19.4299 15.4881 19.2602 15.8593 19.2602C16.0294 19.264 16.1969 19.3022 16.3519 19.3723C16.5069 19.4425 16.646 19.5433 16.7611 19.6686L17.1907 19.0427C17.0303 18.8433 16.8277 18.6819 16.5975 18.57C16.3673 18.4581 16.1153 18.3985 15.8593 18.3956C15.666 18.389 15.4733 18.422 15.2932 18.4926C15.113 18.5631 14.9491 18.6696 14.8116 18.8057C14.674 18.9418 14.5657 19.1045 14.4932 19.2839C14.4207 19.4633 14.3857 19.6556 14.3901 19.849C14.3797 20.1369 14.456 20.4214 14.6092 20.6654C14.7625 20.9095 14.9855 21.1018 15.2494 21.2175L15.8169 21.4986C16.1935 21.6896 16.4534 21.8063 16.4534 22.1776C16.4534 22.5489 16.22 22.7558 15.7745 22.7558C15.5715 22.7414 15.3733 22.6872 15.1913 22.5961C15.0093 22.5051 14.847 22.3791 14.7136 22.2253L14.2257 22.9149C14.4207 23.1282 14.6573 23.2994 14.9209 23.418C15.1845 23.5366 15.4696 23.6 15.7586 23.6045H15.7374ZM12.9792 23.4772H13.8703L12.5018 18.4645H11.5259L10.168 23.4772H11.0273L11.3243 22.1882H12.7299L12.9792 23.4772ZM11.4887 21.4085L11.616 20.878C11.738 20.3476 11.8653 19.7853 11.9767 19.239C12.104 19.7694 12.2154 20.3529 12.348 20.878L12.4753 21.4085H11.4887ZM7.96678 23.5727C9.02761 23.5727 9.61106 22.8884 9.61106 21.2228V18.4645H8.81544V21.3077C8.81544 22.3686 8.49719 22.7027 7.98799 22.7027C7.47879 22.7027 7.18707 22.3526 7.18707 21.3077V18.4645H6.36492V21.2175C6.36492 22.8884 6.95899 23.5727 7.98799 23.5727H7.96678ZM1.81396 23.4772H2.65202V21.3077H4.24326V23.4772H5.11314V18.4645H4.26978V20.4325H2.65202V18.4645H1.81396V23.4772Z"
      fill="white" />
  </g>
  <defs>
    <clipPath id="clip0_127_946">
      <rect width="124.091" height="25.4545" fill="white" transform="translate(32.4546 8.27271)" />
    </clipPath>
    <clipPath id="clip1_127_946">
      <rect width="25.2" height="42" fill="white" />
    </clipPath>
  </defs>
</svg>
