<svg width="180" height="13" viewBox="0 0 180 13" fill="none" xmlns="http://www.w3.org/2000/svg">
<g opacity="0.6" clip-path="url(#clip0_11_627)">
<path d="M11.6487 1.25684V12.3249H10.2783V11.4287H1.32318V12.4413H0V1.25684H11.6487ZM10.2783 10.1951V8.21655C10.0082 8.28426 9.72997 8.31558 9.4513 8.30966H8.02179C6.84038 8.30966 6.62772 7.77429 6.62772 6.54063V2.51377H4.90286C4.83198 6.08674 4.52481 8.14672 2.18561 9.31055C1.98688 8.92477 1.71868 8.57775 1.39407 8.28638C3.36703 7.30876 3.56787 5.65612 3.62694 2.46722H1.32318V10.1485L10.2783 10.1951ZM10.2783 2.51377H7.91546V6.57555C7.91546 7.02944 7.91546 7.21565 8.24626 7.21565H9.42767C9.70942 7.21799 9.99061 7.19068 10.2665 7.13419C10.2665 7.35531 10.2665 7.58808 10.2665 7.83248L10.2783 2.51377Z" fill="white"/>
<path d="M16.5397 0.791343V5.52814C16.5397 8.19331 16.3271 10.9167 14.4841 12.9999C14.1564 12.6402 13.7832 12.3233 13.3735 12.0572C15.0039 10.23 15.1929 7.86744 15.1929 5.52814V0.791343H16.5397ZM20.9228 1.3849V11.6383H19.576V1.3849H20.9228ZM25.483 0.768066V12.8603H24.1008V0.768066H25.483Z" fill="white"/>
<path d="M30.1971 3.59624C29.729 4.02267 29.2273 4.41184 28.6967 4.76007C28.3991 4.41815 28.0795 4.09548 27.7397 3.79409C29.3087 2.83768 30.6343 1.53976 31.6148 0L32.7962 0.430618C32.4182 1.098 31.9835 1.73262 31.4966 2.32766V7.0761H30.1971V3.59624ZM40.5226 9.89257H34.8873V12.8836H33.4932V9.89257H27.8697V8.63563H33.4932V7.05282H34.8873V8.63563H40.5226V9.89257ZM34.6156 4.14324C33.9658 4.34109 33.3278 4.52731 32.6899 4.6786C32.5824 4.31487 32.419 3.96948 32.2055 3.65443C33.0088 3.44494 33.824 3.21218 34.5683 2.95613V0.267681H35.8915V2.47896C37.0283 2.06992 38.1143 1.53501 39.1286 0.884512L40.0855 1.88541C38.7588 2.6563 37.3479 3.27707 35.8797 3.7359V5.05103C35.8797 5.51656 35.986 5.59803 36.6003 5.59803H38.6087C39.1286 5.59803 39.2231 5.36526 39.2821 4.11996C39.6434 4.34817 40.0437 4.50985 40.4636 4.59714C40.3218 6.24978 39.9674 6.71531 38.7505 6.71531H36.4468C34.9464 6.71531 34.5565 6.35452 34.5565 5.05103L34.6156 4.14324Z" fill="white"/>
<path d="M50.4702 2.16465V3.96859H54.0144V12.8021H52.6794V11.999H44.1496V12.8021H42.8737V3.96859H46.2289V2.16465H42.1294V0.907715H54.5697V2.16465H50.4702ZM52.6794 10.8003V8.70539H50.801C49.525 8.70539 49.2297 8.35624 49.2297 7.05275V5.1557H47.4103C47.4177 6.00848 47.1679 6.84423 46.6926 7.55699C46.2172 8.26974 45.5378 8.82741 44.7403 9.15928C44.5663 8.89415 44.3687 8.64487 44.1496 8.41443V10.7421L52.6794 10.8003ZM44.1496 5.1557V8.14675C44.7548 7.90397 45.2738 7.49065 45.6415 6.95859C46.0093 6.42652 46.2095 5.79936 46.2171 5.1557H44.1496ZM49.2179 2.16465H47.4221V3.96859H49.2179V2.16465ZM50.4702 5.1557V6.98292C50.4702 7.39026 50.4702 7.44845 50.9664 7.44845H52.4077H52.6794V5.12079L50.4702 5.1557Z" fill="white"/>
<path d="M58.3379 2.08326C58.0093 2.66589 57.6128 3.20879 57.1565 3.70098C56.7793 3.48249 56.3841 3.29562 55.9751 3.14235C56.857 2.25927 57.5131 1.18217 57.889 0L59.1767 0.232766C59.0813 0.543498 58.9628 0.84691 58.8223 1.14056H62.3665V2.08326H60.4054C60.6576 2.44505 60.8639 2.8359 61.0197 3.24709L59.8974 3.63115C59.6825 3.08581 59.4051 2.56647 59.0704 2.08326H58.3379ZM62.7564 2.86303C62.9866 3.19311 63.1769 3.54854 63.3235 3.92211H68.4508V6.24978H67.1276V4.94628H58.0544V6.28469H56.7903V3.95703H62.0121C61.8822 3.67771 61.7404 3.38675 61.5986 3.13071L62.7564 2.86303ZM59.7202 9.40376H67.4821V12.8953H66.1589V12.4879H59.7202V12.9185H58.397V5.66786H66.6669V8.58908H59.7202V9.40376ZM59.7202 6.64548V7.6231H65.45V6.64548H59.7202ZM59.7202 10.3814V11.4754H66.1589V10.3814H59.7202ZM68.7816 1.16383V2.10654H66.5015C66.7753 2.43621 67.0166 2.79084 67.2221 3.16562L66.1589 3.61952C65.88 3.0714 65.5391 2.55605 65.1429 2.08326H64.3395C64.1066 2.49624 63.8336 2.88601 63.5243 3.24709C63.1781 3.02528 62.8147 2.8307 62.4374 2.66517C63.1068 1.90097 63.5736 0.985305 63.796 0L65.0838 0.232766C64.9965 0.543009 64.8859 0.846439 64.753 1.14056L68.7816 1.16383Z" fill="white"/>
<path d="M74.4288 7.7162C74.2516 7.29722 73.909 6.55237 73.5664 5.94718V12.9302H72.2905V6.7735C71.9292 7.97794 71.4047 9.12887 70.731 10.1952C70.5613 9.74258 70.3351 9.31254 70.0576 8.91495C71.11 7.40561 71.8451 5.70403 72.2196 3.91047H70.3293V2.74664H72.2905V0.0814682H73.531V2.71173H75.1613V3.87556H73.531V4.30618C73.8972 4.80662 74.9369 6.41271 75.1731 6.78514L74.4288 7.7162ZM76.9098 5.87735C76.9098 7.93733 76.6617 10.9633 75.2558 12.8603C74.9618 12.5414 74.6284 12.2598 74.2634 12.0224C75.5039 10.2766 75.6103 7.72784 75.6103 5.81916V2.04834H79.2372C78.9815 1.49556 78.6771 0.965933 78.3275 0.465533L79.4262 0C79.844 0.48299 80.1937 1.01931 80.4659 1.59445L79.438 2.02507H83.124V3.1889H76.8744L76.9098 5.87735ZM83.1949 11.1262V12.2901H76.6972V11.1262H79.3553V7.40197H77.406V6.23814H79.3553V3.71262H80.6076V6.2265H82.6987V7.39033H80.5722V11.1146L83.1949 11.1262Z" fill="white"/>
<path d="M97.2655 10.5675V11.8594H84.5771V10.5675H90.118V2.92117H85.3923V1.58276H96.5212V2.92117H91.5947V10.5675H97.2655Z" fill="white"/>
<path d="M102.866 8.89158C102.677 8.46096 102.287 7.72775 101.921 7.05273V12.8719H100.739V7.48334C100.333 8.57775 99.7891 9.61777 99.1206 10.5791C98.95 10.1328 98.728 9.70711 98.459 9.31056C99.3516 8.06175 100.041 6.68353 100.503 5.22551H98.8134V4.06168H100.704V2.01333L99.2387 2.25774C99.1429 1.91912 99.0204 1.58837 98.8725 1.26848C100.171 1.04146 101.439 0.67056 102.653 0.162842L103.456 1.21029C103.007 1.3965 102.464 1.55944 101.921 1.72238V4.05004H103.563V5.21387H101.921V5.49319C102.31 5.95872 103.433 7.41351 103.669 7.82085L102.866 8.89158ZM111.525 11.324V12.4878H103.362V11.324H106.906V9.67135H104.283V8.50751H106.906V6.9829H103.964V5.81906H111.23V6.9829H108.206V8.53079H110.887V9.69462H108.206V11.324H111.525ZM110.746 4.74834H104.165V0.511991H110.746V4.74834ZM109.47 1.61763H105.394V3.6427H109.47V1.61763Z" fill="white"/>
<path d="M117.893 3.02603C117.669 3.50321 117.409 3.98038 117.161 4.42263H123.836V11.4056C123.836 12.1039 123.694 12.4996 123.174 12.6975C122.373 12.9045 121.542 12.9754 120.717 12.907C120.633 12.4726 120.494 12.0503 120.303 11.65C121.142 11.65 121.993 11.65 122.229 11.65C122.465 11.65 122.536 11.5802 122.536 11.3707V10.2069H116.96V12.9302H115.66V6.49425C115.036 7.21979 114.322 7.86498 113.534 8.41457C113.279 8.05475 112.99 7.7196 112.671 7.41368C114.283 6.29017 115.576 4.77989 116.428 3.02603H113.085V1.8622H116.96C117.192 1.29245 117.389 0.709484 117.551 0.116455L118.897 0.419051C118.744 0.896222 118.59 1.38503 118.401 1.8622H125.49V3.02603H117.893ZM122.536 5.55155H116.96V6.77357H122.501L122.536 5.55155ZM122.536 9.04304V7.87921H116.96V9.04304H122.536Z" fill="white"/>
<path d="M132.023 1.07084C131.633 2.23467 131.149 3.58472 130.712 4.66708C131.46 5.48138 131.88 6.53679 131.893 7.63485C131.928 7.94191 131.891 8.25278 131.784 8.5434C131.678 8.83402 131.505 9.09659 131.279 9.31077C131.055 9.4733 130.788 9.57013 130.511 9.59009C130.204 9.60866 129.896 9.60866 129.589 9.59009C129.592 9.18234 129.486 8.781 129.282 8.42626C129.578 8.42626 129.802 8.42626 130.015 8.42626C130.161 8.4252 130.304 8.38496 130.428 8.30987C130.537 8.18438 130.618 8.03749 130.664 7.87897C130.711 7.72045 130.723 7.55392 130.7 7.39045C130.657 6.38454 130.236 5.43024 129.518 4.71363C129.861 3.79421 130.227 2.61874 130.475 1.69931H128.774V12.8023H127.593V0.640223H130.936L131.137 0.582031L132.023 1.07084ZM139.702 8.05383C138.995 8.61282 138.249 9.12227 137.469 9.57845C138.098 10.4913 138.979 11.2065 140.009 11.6384C139.655 11.9792 139.356 12.3718 139.123 12.8023C136.961 11.7199 135.721 9.60173 135.036 6.86672H133.854V11.138L136.111 10.6259C136.109 11.0149 136.132 11.4037 136.182 11.7897C134.96 12.0202 133.771 12.3913 132.637 12.8954C132.487 12.5226 132.289 12.1705 132.047 11.8479C132.236 11.7407 132.391 11.5838 132.496 11.3948C132.6 11.2058 132.649 10.992 132.637 10.7772V0.675138H138.899V6.85508H136.205C136.394 7.48642 136.635 8.10143 136.926 8.69394C137.607 8.23627 138.251 7.72649 138.852 7.16932L139.702 8.05383ZM133.89 1.78078V3.21229H137.599V1.80405L133.89 1.78078ZM133.89 5.70289H137.599V4.27138H133.89V5.70289Z" fill="white"/>
<path d="M146.401 0.826212C145.523 2.99851 144.181 4.95934 142.467 6.57554C142.098 6.23568 141.703 5.92439 141.285 5.64447C142.937 4.24249 144.205 2.45345 144.971 0.442147L146.401 0.826212ZM150.311 7.4135C151.525 8.89829 152.619 10.4743 153.584 12.127L152.284 12.837C152.011 12.2944 151.704 11.7696 151.363 11.2658C144.274 11.7895 143.388 11.8361 142.797 12.0688C142.649 11.6007 142.472 11.142 142.266 10.6955C142.679 10.5908 143.045 10.2067 143.577 9.53167C144.898 7.88462 146.028 6.09664 146.944 4.20132L148.374 4.79488C147.332 6.81821 146.068 8.72279 144.605 10.4744L150.512 10.1252C150.016 9.39201 149.484 8.6588 149 8.03033L150.311 7.4135ZM150.039 0.337402C151.057 2.27994 152.435 4.017 154.103 5.45826C153.694 5.80105 153.329 6.19191 153.017 6.62209C151.324 4.91014 149.891 2.96578 148.763 0.849488L150.039 0.337402Z" fill="white"/>
<path d="M167.323 11.0914C167.323 11.9177 167.158 12.3483 166.626 12.5578C165.761 12.8098 164.855 12.8967 163.956 12.8139C163.862 12.3275 163.707 11.8545 163.496 11.4056C164.405 11.4056 165.35 11.4056 165.622 11.4056C165.894 11.4056 165.976 11.3242 165.976 11.0565V2.17645H155.946V0.931152H167.311L167.323 11.0914ZM164.452 4.57395H156.076V3.49158H164.452V4.57395ZM158.167 10.3931V11.4056H156.891V5.87744H163.566V10.4047L158.167 10.3931ZM158.167 6.98308V9.31074H162.279V6.98308H158.167Z" fill="white"/>
<path d="M169.639 6.70359C169.606 6.0129 169.715 5.3227 169.96 4.67479C170.205 4.02689 170.582 3.43476 171.066 2.93429C171.55 2.43381 172.133 2.03539 172.778 1.76317C173.423 1.49095 174.118 1.35059 174.82 1.35059C175.522 1.35059 176.216 1.49095 176.861 1.76317C177.507 2.03539 178.089 2.43381 178.574 2.93429C179.058 3.43476 179.434 4.02689 179.679 4.67479C179.925 5.3227 180.034 6.0129 180 6.70359C180.034 7.39428 179.925 8.08448 179.679 8.73238C179.434 9.38029 179.058 9.97241 178.574 10.4729C178.089 10.9734 177.507 11.3718 176.861 11.644C176.216 11.9162 175.522 12.0566 174.82 12.0566C174.118 12.0566 173.423 11.9162 172.778 11.644C172.133 11.3718 171.55 10.9734 171.066 10.4729C170.582 9.97241 170.205 9.38029 169.96 8.73238C169.715 8.08448 169.606 7.39428 169.639 6.70359ZM179.091 6.70359C179.121 6.1247 179.032 5.54571 178.828 5.00188C178.625 4.45806 178.311 3.96078 177.905 3.54032C177.5 3.11987 177.013 2.78505 176.472 2.55624C175.931 2.32744 175.349 2.20944 174.761 2.20944C174.172 2.20944 173.59 2.32744 173.049 2.55624C172.509 2.78505 172.021 3.11987 171.616 3.54032C171.211 3.96078 170.897 4.45806 170.693 5.00188C170.489 5.54571 170.4 6.1247 170.431 6.70359C170.4 7.28248 170.489 7.86146 170.693 8.40529C170.897 8.94912 171.211 9.4464 171.616 9.86685C172.021 10.2873 172.509 10.6221 173.049 10.8509C173.59 11.0797 174.172 11.1977 174.761 11.1977C175.349 11.1977 175.931 11.0797 176.472 10.8509C177.013 10.6221 177.5 10.2873 177.905 9.86685C178.311 9.4464 178.625 8.94912 178.828 8.40529C179.032 7.86146 179.121 7.28248 179.091 6.70359ZM172.002 6.70359C171.989 6.31231 172.057 5.92252 172.201 5.55777C172.346 5.19302 172.564 4.86085 172.842 4.58133C173.12 4.3018 173.453 4.0807 173.82 3.93138C174.188 3.78207 174.582 3.70762 174.979 3.71254C175.361 3.71226 175.739 3.79202 176.087 3.94652C176.435 4.10103 176.746 4.32674 176.999 4.60869L176.35 5.33027C176.189 5.14753 175.991 4.99946 175.77 4.89532C175.548 4.79119 175.307 4.73323 175.062 4.72507C174.806 4.72371 174.553 4.77546 174.319 4.87694C174.085 4.97843 173.875 5.12737 173.704 5.31405C173.532 5.50074 173.402 5.72097 173.323 5.9604C173.243 6.19982 173.216 6.45306 173.243 6.70359C173.243 7.97216 173.928 8.78685 174.991 8.78685C175.571 8.77747 176.126 8.54822 176.539 8.14674L177.094 8.94978C176.519 9.49491 175.754 9.80298 174.956 9.81102C174.551 9.81738 174.149 9.73997 173.776 9.58381C173.404 9.42765 173.069 9.1962 172.792 8.90443C172.516 8.61266 172.305 8.26706 172.173 7.88996C172.041 7.51286 171.991 7.11266 172.026 6.71523L172.002 6.70359Z" fill="white"/>
</g>
<defs>
<clipPath id="clip0_11_627">
<rect width="180" height="13" fill="white"/>
</clipPath>
</defs>
</svg>
