<svg width="35" height="35" viewBox="0 0 35 35" fill="none" xmlns="http://www.w3.org/2000/svg">
<path d="M32.8193 17.4192C32.8193 25.9244 25.9245 32.8192 17.4193 32.8192C8.9141 32.8192 2.01929 25.9244 2.01929 17.4192C2.01929 8.91405 8.9141 2.01923 17.4193 2.01923C25.9245 2.01923 32.8193 8.91405 32.8193 17.4192Z" fill="white"/>
<path d="M23.9401 13.3249C24.4838 12.7813 24.4838 11.8998 23.9401 11.3562L23.6439 11.0599C23.1002 10.5163 22.2188 10.5163 21.6752 11.0599L17.5 15.235L13.3249 11.0599C12.7813 10.5163 11.8999 10.5163 11.3562 11.0599L11.06 11.3562C10.5163 11.8998 10.5163 12.7813 11.06 13.3249L15.2351 17.5L11.06 21.6751C10.5163 22.2188 10.5163 23.1002 11.06 23.6438L11.3562 23.9401C11.8999 24.4837 12.7813 24.4837 13.3249 23.9401L17.5 19.765L21.6752 23.9401C22.2188 24.4837 23.1002 24.4837 23.6439 23.9401L23.9401 23.6438C24.4838 23.1002 24.4838 22.2188 23.9401 21.6751L19.765 17.5L23.9401 13.3249Z" fill="#FF564A"/>
</svg>
