<svg width="35" height="35" viewBox="0 0 35 35" fill="none" xmlns="http://www.w3.org/2000/svg">
<path d="M32.8193 17.4192C32.8193 25.9244 25.9245 32.8192 17.4193 32.8192C8.9141 32.8192 2.01929 25.9244 2.01929 17.4192C2.01929 8.91405 8.9141 2.01923 17.4193 2.01923C25.9245 2.01923 32.8193 8.91405 32.8193 17.4192Z" fill="white"/>
<path fill-rule="evenodd" clip-rule="evenodd" d="M26.0685 11.3558C26.7626 12.0139 26.7931 13.1096 26.1367 13.8053L16.3968 24.1293C16.0534 24.4933 15.57 24.6912 15.0708 24.672C14.5715 24.6529 14.1048 24.4187 13.7905 24.0295L8.92983 18.0109C8.32871 17.2666 8.44331 16.1762 9.18605 15.5731C9.93156 14.9678 11.0269 15.0829 11.6303 15.83L15.2397 20.2993L23.6128 11.4241C24.2715 10.7259 25.372 10.6953 26.0685 11.3558Z" fill="#59CE46"/>
</svg>
